<?xml version="1.0" encoding="UTF-8" standalone="no"?>
<!-- Created with Inkscape (http://www.inkscape.org/) -->

<svg
   xmlns:dc="http://purl.org/dc/elements/1.1/"
   xmlns:cc="http://creativecommons.org/ns#"
   xmlns:rdf="http://www.w3.org/1999/02/22-rdf-syntax-ns#"
   xmlns:svg="http://www.w3.org/2000/svg"
   xmlns="http://www.w3.org/2000/svg"
   xmlns:sodipodi="http://sodipodi.sourceforge.net/DTD/sodipodi-0.dtd"
   xmlns:inkscape="http://www.inkscape.org/namespaces/inkscape"
   width="132.29167mm"
   height="46.033592mm"
   viewBox="0 0 132.29167 46.033592"
   version="1.1"
   id="svg1057"
   inkscape:version="0.92.3 (2405546, 2018-03-11)"
   sodipodi:docname="doaj-violet.svg">
  <defs
     id="defs1051" />
  <sodipodi:namedview
     id="base"
     pagecolor="#ffffff"
     bordercolor="#666666"
     borderopacity="1.0"
     inkscape:pageopacity="0.0"
     inkscape:pageshadow="2"
     inkscape:zoom="0.35"
     inkscape:cx="554.28572"
     inkscape:cy="144.13548"
     inkscape:document-units="mm"
     inkscape:current-layer="layer1"
     showgrid="false"
     fit-margin-top="0"
     fit-margin-left="0"
     fit-margin-right="0"
     fit-margin-bottom="0"
     inkscape:window-width="1366"
     inkscape:window-height="732"
     inkscape:window-x="0"
     inkscape:window-y="0"
     inkscape:window-maximized="1" />
  <metadata
     id="metadata1054">
    <rdf:RDF>
      <cc:Work
         rdf:about="">
        <dc:format>image/svg+xml</dc:format>
        <dc:type
           rdf:resource="http://purl.org/dc/dcmitype/StillImage" />
        <dc:title></dc:title>
      </cc:Work>
    </rdf:RDF>
  </metadata>
  <g
     inkscape:label="Layer 1"
     inkscape:groupmode="layer"
     id="layer1"
     transform="translate(178.78274,-140.93559)">
    <g
       transform="translate(192.39803,-389.17541)"
       id="layer1-5"
       inkscape:label="Layer 1">
      <path
         sodipodi:nodetypes="csssccccssssccccssccssscscccccccccccccccccsscccccccccssscssccccscsccccccccccscccccccscsssccccccccsccccssssccscsscsss"
         style="fill:#610c3a;fill-opacity:1;stroke-width:0.10424882"
         d="m -321.14133,576.10208 c -1.03637,-0.0936 -2.49871,-0.35817 -3.35878,-0.60771 -2.86377,-0.83088 -5.64106,-2.7197 -7.57063,-5.14872 -1.9696,-2.47942 -2.7137,-4.86295 -3.0484,-9.76475 -0.15602,-2.28501 -0.15709,-12.58139 -0.002,-14.90758 0.20114,-3.00807 0.59291,-5.12426 1.25458,-6.7767 1.40359,-3.50531 5.08251,-6.79108 8.98487,-8.02471 3.21822,-1.01736 7.0687,-1.01439 10.24759,0.008 3.60031,1.15782 7.00953,4.04429 8.60738,7.2876 0.85392,1.73328 1.33863,3.865 1.56449,6.88043 0.28712,3.83354 0.2228,14.39971 -0.10535,17.3053 -0.51011,4.51669 -1.58047,6.87048 -4.33997,9.5438 -2.20135,2.13261 -4.96851,3.51852 -8.00904,4.01128 -0.97069,0.1573 -3.39715,0.26864 -4.22519,0.19387 z m 4.1221,-3.26221 c 2.51128,-0.5395 4.75641,-1.89854 6.48258,-3.9241 1.75625,-2.06085 2.45162,-4.31195 2.74744,-8.89424 0.17279,-2.67655 0.0666,-14.15464 -0.14604,-15.78129 -0.49262,-3.76887 -1.31707,-5.69015 -3.26531,-7.60938 -2.5368,-2.49901 -5.54657,-3.6511 -9.10679,-3.48593 -3.2346,0.15007 -5.76914,1.2452 -7.98775,3.45136 -2.37459,2.36128 -3.20752,4.78614 -3.47602,10.11952 -0.13415,2.6649 -0.13654,10.2475 -0.004,12.8226 0.26026,5.05783 1.04208,7.52746 3.07975,9.72832 1.92598,2.08024 4.43307,3.3936 7.1892,3.76611 1.06652,0.14414 3.38108,0.0446 4.48698,-0.19297 z m 63.1436,3.2174 c -1.65888,-0.13598 -3.22849,-0.54069 -4.71624,-1.21604 -0.97212,-0.44128 -2.61777,-1.53963 -3.20475,-2.13891 l -0.44199,-0.45125 1.14104,-1.13749 1.14102,-1.13749 0.60406,0.52265 c 2.14445,1.85538 3.67284,2.48496 6.33776,2.61065 2.74468,0.12945 5.29458,-0.53069 6.98467,-1.80824 1.35767,-1.02629 2.67556,-3.07404 3.17569,-4.93444 0.53235,-1.98025 0.52387,-1.66712 0.52453,-19.36421 l 5.3e-4,-16.49738 h 1.7201 1.72011 v 16.29683 c 0,11.04299 -0.0368,16.66396 -0.11414,17.43562 -0.47987,4.78781 -3.03639,8.67364 -6.91845,10.51583 -1.55518,0.738 -3.09325,1.13814 -5.00815,1.30291 -1.3661,0.11755 -1.52306,0.1176 -2.94588,7.9e-4 z m -117.30514,-22.93016 v -22.62199 l 8.31384,7.9e-4 c 5.01516,2.6e-4 8.68611,0.0434 9.25209,0.10812 2.80692,0.32092 5.00168,1.0822 7.03021,2.43852 3.1811,2.12696 4.99613,5.4133 5.83728,10.56913 0.37946,2.32593 0.44425,4.03061 0.39891,10.49573 -0.0465,6.62756 -0.0945,7.34267 -0.66852,9.95577 -0.79148,3.60299 -1.93834,5.88434 -3.9075,7.77283 -1.81974,1.74522 -3.90707,2.83399 -6.55328,3.41829 -2.0569,0.45417 -2.78032,0.48476 -11.46327,0.48476 h -8.23976 z m 18.19142,19.25419 c 2.63718,-0.5842 4.21133,-1.40264 5.80553,-3.01847 2.11147,-2.14013 3.09057,-5.29822 3.41752,-11.02327 0.13353,-2.33812 0.13435,-8.18644 0.002,-10.47702 -0.32437,-5.59127 -1.32762,-8.83145 -3.38658,-10.9376 -1.6761,-1.71451 -3.41388,-2.58686 -6.27976,-3.15238 -0.79413,-0.15671 -1.78804,-0.18516 -7.61139,-0.21785 l -6.69799,-0.0376 v 19.61121 19.6112 l 6.75011,-0.0405 6.75011,-0.0405 z m 51.45722,2.51015 c 0.17584,-0.47435 0.90666,-2.45746 1.62405,-4.40691 6.22889,-16.92645 6.62034,-17.98933 8.04347,-21.84013 0.51914,-1.40475 1.53775,-4.17256 2.26357,-6.15068 0.72582,-1.97812 1.62327,-4.41754 1.99434,-5.42094 0.37107,-1.00339 0.81074,-2.19965 0.97704,-2.65834 0.1663,-0.4587 0.5529,-1.51422 0.85912,-2.3456 l 0.55675,-1.51161 1.51856,-0.0288 c 1.37375,-0.026 1.52545,-0.0111 1.59078,0.15637 0.0397,0.10183 0.82271,2.22582 1.74,4.71998 2.71565,7.38404 4.98122,13.53926 5.35276,14.54271 0.43526,1.17551 1.29483,3.5117 3.70144,10.06001 1.04308,2.83817 2.35559,6.40348 2.9167,7.92291 1.65888,4.49213 2.81684,7.67968 2.81684,7.75405 0,0.0383 -0.80786,0.0567 -1.79523,0.041 l -1.79523,-0.0285 -0.28247,-0.78186 c -0.31318,-0.86689 -1.11232,-3.09544 -2.64501,-7.37609 l -1.01733,-2.84128 -10.5782,0.0266 -10.57821,0.0265 -0.18959,0.52125 c -0.2991,0.8223 -2.7922,7.78928 -3.28283,9.17389 l -0.44328,1.25099 -1.83387,0.0285 -1.83387,0.0285 z m 27.30276,-13.26316 c 0,-0.0833 -0.0461,-0.25922 -0.10241,-0.39093 -0.0563,-0.13171 -0.48271,-1.31844 -0.94751,-2.63719 -0.46481,-1.31874 -1.56356,-4.41493 -2.44168,-6.88042 -0.87811,-2.46548 -2.11384,-5.93697 -2.74606,-7.71441 -0.63223,-1.77744 -1.59904,-4.49504 -2.14848,-6.03911 -0.54944,-1.54407 -1.02051,-2.82892 -1.04683,-2.85524 -0.0569,-0.0569 0.0592,-0.36734 -1.45512,3.8904 -0.67297,1.89212 -1.59093,4.47228 -2.03994,5.73369 -0.449,1.26141 -1.8334,5.1551 -3.07645,8.65265 -1.24305,3.49755 -2.41363,6.79121 -2.6013,7.31924 -0.18768,0.52804 -0.31587,0.98543 -0.28487,1.01643 0.031,0.031 4.29408,0.0564 9.47351,0.0564 8.16575,0 9.41714,-0.0201 9.41714,-0.15148 z"
         id="path828"
         inkscape:connector-curvature="0" />
    </g>
  </g>
</svg>
