<?xml version="1.0" encoding="UTF-8" standalone="no"?>
<!-- Created with Inkscape (http://www.inkscape.org/) -->

<svg
   xmlns:dc="http://purl.org/dc/elements/1.1/"
   xmlns:cc="http://creativecommons.org/ns#"
   xmlns:rdf="http://www.w3.org/1999/02/22-rdf-syntax-ns#"
   xmlns:svg="http://www.w3.org/2000/svg"
   xmlns="http://www.w3.org/2000/svg"
   xmlns:sodipodi="http://sodipodi.sourceforge.net/DTD/sodipodi-0.dtd"
   xmlns:inkscape="http://www.inkscape.org/namespaces/inkscape"
   width="132.29167mm"
   height="132.44733mm"
   viewBox="0 0 132.29167 132.44733"
   version="1.1"
   id="svg8"
   inkscape:version="0.92.3 (2405546, 2018-03-11)"
   sodipodi:docname="microsoft.svg">
  <defs
     id="defs2" />
  <sodipodi:namedview
     id="base"
     pagecolor="#ffffff"
     bordercolor="#666666"
     borderopacity="1.0"
     inkscape:pageopacity="0.0"
     inkscape:pageshadow="2"
     inkscape:zoom="0.24748737"
     inkscape:cx="130.19928"
     inkscape:cy="-226.50706"
     inkscape:document-units="mm"
     inkscape:current-layer="layer1"
     showgrid="false"
     fit-margin-top="0"
     fit-margin-left="0"
     fit-margin-right="0"
     fit-margin-bottom="0"
     inkscape:window-width="1366"
     inkscape:window-height="732"
     inkscape:window-x="0"
     inkscape:window-y="0"
     inkscape:window-maximized="1" />
  <metadata
     id="metadata5">
    <rdf:RDF>
      <cc:Work
         rdf:about="">
        <dc:format>image/svg+xml</dc:format>
        <dc:type
           rdf:resource="http://purl.org/dc/dcmitype/StillImage" />
        <dc:title></dc:title>
      </cc:Work>
    </rdf:RDF>
  </metadata>
  <g
     inkscape:label="Layer 1"
     inkscape:groupmode="layer"
     id="layer1"
     transform="translate(166.87071,-31.579705)">
    <path
       style="fill:#610c3a;fill-opacity:1;stroke-width:0.66474605"
       d="m -70.261944,158.50121 c -27.333891,-21.02901 -64.048526,-39.13486 -86.749356,-42.78049 -2.74208,-0.44037 -6.0822,-1.08011 -7.42251,-1.42165 l -2.4369,-0.621 9.08436,-8.99614 c 11.01317,-10.906244 8.74502,-10.61935 24.70591,-3.12491 8.72915,4.09877 25.06804,14.94733 34.566791,22.95132 10.339965,8.71284 31.15225,31.5162 35.485809,38.88065 0.724106,1.23056 0.679159,1.20018 -7.234104,-4.88778 z m -0.697977,4.43923 c -1.318773,-1.28372 -16.286451,-8.61654 -24.894727,-12.19617 -25.011902,-10.40082 -47.610932,-16.32951 -63.502782,-16.65947 l -5.33747,-0.1108 5.00511,-4.00212 c 9.74421,-7.79148 9.44644,-7.61787 12.00045,-6.99783 16.16535,3.92433 34.50262,12.23099 55.490775,25.13692 11.766169,7.23519 23.712303,15.44424 22.475084,15.44424 -0.332721,0 -0.889097,-0.27665 -1.23644,-0.61474 z m 10.243387,-3.19251 C -66.971294,149.62747 -85.937047,128.7562 -99.855611,116.6764 -113.35463,104.96076 -132.50974,94.068157 -146.67314,90.053501 l -3.95391,-1.120743 2.29204,-2.019563 c 1.26061,-1.110769 4.6851,-4.166859 7.60999,-6.791314 2.92489,-2.624481 8.75804,-7.856332 12.96256,-11.626378 4.20452,-3.770046 9.98983,-8.964914 12.85626,-11.544096 6.33054,-5.696172 7.77269,-6.974821 12.19662,-10.813683 3.871275,-3.359315 3.16149,-3.419789 10.335748,0.880631 l 3.81321,2.28573 -7.136924,8.067727 c -3.925314,4.437246 -9.613124,10.841169 -12.639564,14.230959 -6.19471,6.938367 -6.16693,6.297999 -0.45648,10.524554 10.966587,8.116844 27.530033,24.390385 35.207329,34.591135 7.071902,9.39632 10.566988,16.82687 12.978214,27.59149 1.36985,6.11554 2.555037,17.91573 1.799424,17.91573 -0.207023,0 -1.06567,-1.11499 -1.907911,-2.47775 z m 5.562662,-8.32068 c -0.102507,-10.03013 -2.590638,-19.25024 -7.668753,-28.41858 -6.126979,-11.06206 -25.595593,-31.958439 -40.995085,-44.001528 l -2.28522,-1.787164 2.94928,-3.530813 c 1.6221,-1.941929 9.088051,-10.672912 16.591009,-19.40216 7.502959,-8.729249 14.539134,-16.977268 15.635959,-18.328978 3.955262,-4.874308 4.179572,-5.013245 5.812724,-3.600659 13.957959,12.072861 26.105565,31.833872 29.41335,47.847925 1.999188,9.678745 1.385,16.695801 -2.320728,26.514107 -0.689962,1.82805 -2.458258,7.06291 -3.92951,11.63304 -1.471277,4.57013 -2.994435,9.20674 -3.384766,10.30356 -0.39033,1.09682 -2.660207,7.96864 -5.044147,15.27068 -2.383941,7.30204 -4.419207,13.36118 -4.52282,13.46479 -0.103512,0.10351 -0.216822,-2.58028 -0.251293,-5.96422 z"
       id="path847"
       inkscape:connector-curvature="0" />
  </g>
</svg>
