<?xml version="1.0" encoding="UTF-8" standalone="no"?>
<!-- Created with Inkscape (http://www.inkscape.org/) -->

<svg
   xmlns:dc="http://purl.org/dc/elements/1.1/"
   xmlns:cc="http://creativecommons.org/ns#"
   xmlns:rdf="http://www.w3.org/1999/02/22-rdf-syntax-ns#"
   xmlns:svg="http://www.w3.org/2000/svg"
   xmlns="http://www.w3.org/2000/svg"
   xmlns:sodipodi="http://sodipodi.sourceforge.net/DTD/sodipodi-0.dtd"
   xmlns:inkscape="http://www.inkscape.org/namespaces/inkscape"
   width="132.29167mm"
   height="149.79314mm"
   viewBox="0 0 132.29167 149.79314"
   version="1.1"
   id="svg2159"
   inkscape:version="0.92.3 (2405546, 2018-03-11)"
   sodipodi:docname="scholar-violet.svg">
  <defs
     id="defs2153" />
  <sodipodi:namedview
     id="base"
     pagecolor="#ffffff"
     bordercolor="#666666"
     borderopacity="1.0"
     inkscape:pageopacity="0.0"
     inkscape:pageshadow="2"
     inkscape:zoom="0.35"
     inkscape:cx="528.57144"
     inkscape:cy="385.9308"
     inkscape:document-units="mm"
     inkscape:current-layer="layer1"
     showgrid="false"
     inkscape:window-width="1366"
     inkscape:window-height="732"
     inkscape:window-x="0"
     inkscape:window-y="0"
     inkscape:window-maximized="1"
     fit-margin-top="0"
     fit-margin-left="0"
     fit-margin-right="0"
     fit-margin-bottom="0" />
  <metadata
     id="metadata2156">
    <rdf:RDF>
      <cc:Work
         rdf:about="">
        <dc:format>image/svg+xml</dc:format>
        <dc:type
           rdf:resource="http://purl.org/dc/dcmitype/StillImage" />
        <dc:title></dc:title>
      </cc:Work>
    </rdf:RDF>
  </metadata>
  <g
     inkscape:label="Layer 1"
     inkscape:groupmode="layer"
     id="layer1"
     transform="translate(171.97917,-101.15105)">
    <path
       style="fill:#610c3a;fill-opacity:1;stroke-width:0.4571625"
       d="m -114.66216,250.82105 c -16.30702,-2.0199 -29.21461,-9.24965 -33.4468,-18.73407 -1.51069,-3.3855 -1.67686,-8.71665 -0.39057,-12.53097 2.64601,-7.84639 8.58125,-14.19789 17.28872,-18.50125 6.08977,-3.00965 14.62717,-4.88856 25.13709,-5.53216 4.73618,-0.29005 5.10423,-0.37733 4.48348,-1.06324 -1.43759,-1.58853 -3.60437,-7.07719 -4.04785,-10.25358 -0.39555,-2.83308 -0.3377,-3.6298 0.42468,-5.84728 l 0.88262,-2.56727 -4.68615,-0.30298 c -17.86998,-1.15531 -28.05436,-10.20064 -30.80317,-27.35803 l -0.56669,-3.53715 -15.79619,-0.12009 -15.79618,-0.12008 20.30985,-17.60076 c 11.17043,-9.68042 22.34737,-19.40083 24.83769,-21.60093 l 4.52783,-4.00016 h 41.308152 c 23.80304,0 41.30815,0.17227 41.30815,0.40651 0,0.60275 -1.33338,1.99409 -3.72913,3.89121 -4.10439,3.25013 -4.54925,6.49108 -1.92486,14.02304 l 1.66061,4.76595 -0.2674,7.08601 c -0.17072,4.52516 -0.0138,10.63818 0.43587,16.91501 0.39226,5.48228 0.62241,13.06377 0.52042,17.14361 -0.25522,10.20929 -1.14462,12.11481 -5.65463,12.11481 -2.57997,0 -4.55953,-1.07202 -5.18539,-2.8081 -0.92717,-2.5718 -1.26863,-11.05816 -0.83338,-20.71205 0.22729,-5.04184 0.45506,-14.00148 0.50614,-19.9103 l 0.0927,-10.74332 1.4749,-3.50488 c 1.54976,-3.68269 2.01768,-7.6956 0.89737,-7.6956 -0.7949,0 -4.75424,2.71351 -9.96798,6.83153 -2.40559,1.90004 -5.93309,4.66282 -7.83886,6.1395 -4.638769,3.59433 -4.890139,4.11802 -3.830559,7.98048 3.544689,12.92147 3.649619,14.01975 1.876109,19.63391 -1.899988,6.01455 -4.48915,9.36883 -11.447189,14.82987 -5.832171,4.57741 -7.8486,7.86403 -7.437321,12.12222 0.458081,4.74264 2.558531,7.25576 11.80964,14.12983 3.385611,2.5157 6.92109,5.42733 7.8566,6.47032 6.83245,7.61719 8.33857,22.63308 3.23417,32.24444 -1.59534,3.00397 -7.800949,9.21664 -11.191489,11.20426 -4.899901,2.87242 -11.00468,4.96814 -18.29425,6.28023 -3.817373,0.68711 -14.761113,1.20024 -17.736903,0.83163 z m 21.688702,-7.46141 c 13.136801,-3.44812 19.879551,-12.07845 18.157632,-23.24083 -0.72681,-4.71159 -2.39146,-7.97998 -5.758452,-11.30612 -3.39257,-3.35141 -6.795418,-5.39804 -11.90121,-7.15792 -9.735242,-3.3556 -19.903322,-2.62857 -29.765142,2.12826 -7.20134,3.47356 -11.14915,8.42321 -12.16217,15.24856 -1.81796,12.24867 7.14058,21.98944 22.99813,25.00625 4.70419,0.89494 13.698692,0.56399 18.431212,-0.6782 z m -1.617519,-72.77021 c 6.09641,-3.04641 10.07791,-10.83451 10.094791,-19.74613 0.0104,-5.04422 -1.083162,-9.41305 -3.726141,-14.8977 -1.983261,-4.11557 -2.817849,-5.27795 -6.249741,-8.70433 -5.618952,-5.60994 -10.738172,-7.83124 -16.489922,-7.15523 -8.34727,0.98106 -13.71915,7.34525 -14.91891,17.67483 -1.01073,8.70198 4.23184,21.29888 11.65532,28.00557 4.64003,4.19197 9.06053,6.18869 13.77673,6.22285 2.483454,0.018 3.512723,-0.22798 5.857873,-1.39986 z"
       id="path881"
       inkscape:connector-curvature="0"
       sodipodi:nodetypes="ccsssccsccccccsccssccccccscccccscscsssscsscccccscssscsccsscccs" />
  </g>
</svg>
