<?xml version="1.0" encoding="UTF-8" standalone="no"?>
<!-- Created with Inkscape (http://www.inkscape.org/) -->

<svg
   xmlns:dc="http://purl.org/dc/elements/1.1/"
   xmlns:cc="http://creativecommons.org/ns#"
   xmlns:rdf="http://www.w3.org/1999/02/22-rdf-syntax-ns#"
   xmlns:svg="http://www.w3.org/2000/svg"
   xmlns="http://www.w3.org/2000/svg"
   xmlns:sodipodi="http://sodipodi.sourceforge.net/DTD/sodipodi-0.dtd"
   xmlns:inkscape="http://www.inkscape.org/namespaces/inkscape"
   width="132.29164mm"
   height="127.37869mm"
   viewBox="0 0 132.29164 127.37869"
   version="1.1"
   id="svg8"
   inkscape:version="0.92.3 (2405546, 2018-03-11)"
   sodipodi:docname="worldcat-violet.svg">
  <defs
     id="defs2" />
  <sodipodi:namedview
     id="base"
     pagecolor="#ffffff"
     bordercolor="#666666"
     borderopacity="1.0"
     inkscape:pageopacity="0.0"
     inkscape:pageshadow="2"
     inkscape:zoom="0.12374369"
     inkscape:cx="-1053.3403"
     inkscape:cy="-763.22309"
     inkscape:document-units="mm"
     inkscape:current-layer="layer1"
     showgrid="false"
     showguides="false"
     fit-margin-top="0"
     fit-margin-left="0"
     fit-margin-right="0"
     fit-margin-bottom="0"
     inkscape:window-width="1366"
     inkscape:window-height="732"
     inkscape:window-x="0"
     inkscape:window-y="0"
     inkscape:window-maximized="1" />
  <metadata
     id="metadata5">
    <rdf:RDF>
      <cc:Work
         rdf:about="">
        <dc:format>image/svg+xml</dc:format>
        <dc:type
           rdf:resource="http://purl.org/dc/dcmitype/StillImage" />
        <dc:title></dc:title>
      </cc:Work>
    </rdf:RDF>
  </metadata>
  <g
     inkscape:label="Layer 1"
     inkscape:groupmode="layer"
     id="layer1"
     transform="translate(519.7351,-47.302173)">
    <path
       style="fill:#610c3a;fill-opacity:1;stroke-width:0.23672648"
       d="m -451.82717,174.48298 c -2.42101,-0.61159 -4.38028,-2.21083 -5.39092,-4.40032 -0.38858,-0.84182 -0.49728,-1.543 -0.49728,-3.20784 0,-3.68954 0.8483,-4.88934 5.88117,-8.31808 7.84107,-5.34188 13.51358,-10.16812 17.0922,-14.54226 3.86076,-4.71901 5.87287,-10.55235 5.42443,-15.72608 -0.40064,-4.62207 -1.70267,-8.10702 -6.13852,-16.42998 -1.64001,-3.07713 -1.24499,-6.33716 1.07554,-8.87619 1.72593,-1.88844 3.34844,-2.62506 5.78513,-2.62646 1.66942,-8.9e-4 2.08971,0.0929 3.47925,0.77697 0.94939,0.46737 1.94448,1.19159 2.49208,1.8137 0.99897,1.1349 5.03034,9.02414 6.17944,12.09294 5.08833,13.589 3.41562,26.11114 -5.00061,37.43508 -2.62642,3.53384 -8.87552,9.69761 -13.19167,13.01159 -5.27636,4.05123 -11.23589,8.26999 -12.26291,8.68092 -1.33421,0.53384 -3.51209,0.67353 -4.92733,0.31601 z m -28.33344,-19.33783 c -9.8059,-1.02133 -19.28255,-5.44673 -33.66133,-15.71917 -3.94118,-2.81563 -4.36448,-3.22492 -5.27561,-5.10105 -0.53151,-1.09445 -0.63312,-1.62276 -0.63743,-3.31417 -0.004,-1.72429 0.0884,-2.20268 0.64875,-3.34366 1.34809,-2.74508 4.1016,-4.46832 7.13979,-4.46832 2.35452,0 3.4938,0.51038 7.24577,3.24591 8.32358,6.06866 15.00304,9.92556 20.17099,11.64727 7.67754,2.55777 13.99733,1.75729 20.42031,-2.58648 2.27011,-1.53525 5.80638,-4.75281 7.8727,-7.16317 2.81635,-3.28528 4.40849,-4.09274 7.71097,-3.91064 2.34966,0.12957 3.83918,0.80671 5.32843,2.42236 1.51501,1.64359 2.00757,2.93883 2.03085,5.34036 0.0291,2.99978 -0.49319,3.94331 -4.40233,7.95292 -9.78002,10.03138 -18.97376,14.69551 -29.78513,15.11045 -1.4973,0.0574 -3.66033,0.007 -4.80673,-0.11261 z m 0.48732,-26.89414 c -1.11999,-0.19338 -9.41214,-4.45011 -12.01472,-6.16769 -15.61469,-10.30494 -21.02183,-24.844117 -16.79828,-45.168674 1.3497,-6.49499 5.45834,-19.371817 6.70078,-21.000761 1.75435,-2.300114 4.17602,-3.408146 7.00612,-3.205654 4.069,0.291131 7.05984,3.285981 7.30138,7.311167 0.1059,1.764761 0.0658,1.925962 -1.93934,7.790036 -3.35956,9.825323 -4.36316,14.346234 -4.57086,20.590552 -0.095,2.855016 -0.0333,4.142047 0.27787,5.799801 1.41256,7.525223 6.40714,13.092373 15.75246,17.558333 1.7577,0.83996 3.55117,1.70216 3.98549,1.91598 1.21157,0.59648 2.93689,2.63848 3.45483,4.08894 0.57733,1.61672 0.5961,3.77078 0.0469,5.3793 -0.55806,1.63444 -2.38151,3.62765 -4.07801,4.45768 -1.29653,0.63432 -3.55764,0.92155 -5.12461,0.65099 z m 81.82821,-0.73475 c -2.87936,-1.02936 -4.26775,-2.67408 -5.44304,-6.44801 -3.18507,-10.22747 -4.12046,-12.77397 -6.26079,-17.04431 -5.26062,-10.495914 -11.13797,-15.136003 -20.05468,-15.832905 -3.54131,-0.27678 -6.59419,-0.01199 -12.22669,1.060469 -3.34313,0.636545 -4.56297,0.571794 -6.65426,-0.353287 -1.35785,-0.600648 -3.1066,-2.3666 -3.72922,-3.765915 -0.74911,-1.683575 -0.83122,-4.308157 -0.1881,-6.012382 0.63492,-1.682501 2.30728,-3.576271 3.84726,-4.356641 2.42458,-1.228631 13.47262,-2.637752 18.29711,-2.33371 14.57124,0.918299 24.68758,7.152936 32.38956,19.961452 2.97511,4.947647 4.72715,9.030979 8.00447,18.655299 2.23739,6.57044 2.40605,7.19488 2.41929,8.95665 0.011,1.47334 -0.10284,2.15243 -0.51296,3.05859 -0.80253,1.77314 -1.97717,3.04315 -3.62891,3.92351 -1.89033,1.00754 -4.34406,1.21578 -6.25904,0.53119 z m -79.65607,-30.42932 c -2.42338,-0.687086 -4.08548,-2.098794 -5.11972,-4.348418 -0.8368,-1.820183 -0.89936,-3.104214 -0.32684,-6.708061 1.43603,-9.039361 3.6649,-15.413915 7.32842,-20.959193 6.60629,-9.999622 16.36236,-15.319522 31.77038,-17.324121 4.64808,-0.604719 21.51517,-0.588892 23.3326,0.02192 3.51416,1.181014 5.56286,3.968004 5.59291,7.608436 0.0251,3.041858 -1.90674,6.004195 -4.74833,7.281185 -1.26334,0.567732 -1.19433,0.565388 -12.47957,0.423003 -7.46466,-0.09419 -10.04037,0.103903 -15.1505,1.165168 -6.76188,1.404299 -11.75075,4.49951 -15.01482,9.315551 -2.24402,3.31098 -4.02343,8.702135 -4.85825,14.719241 -0.21677,1.562394 -0.55679,3.34794 -0.7556,3.967897 -0.47636,1.485389 -2.35352,3.526805 -3.97051,4.317938 -1.52082,0.744063 -3.99769,0.973825 -5.60017,0.51948 z"
       id="path826-3"
       inkscape:connector-curvature="0" />
  </g>
</svg>
