<?xml version="1.0" encoding="UTF-8" standalone="no"?>
<!-- Created with Inkscape (http://www.inkscape.org/) -->

<svg
   xmlns:dc="http://purl.org/dc/elements/1.1/"
   xmlns:cc="http://creativecommons.org/ns#"
   xmlns:rdf="http://www.w3.org/1999/02/22-rdf-syntax-ns#"
   xmlns:svg="http://www.w3.org/2000/svg"
   xmlns="http://www.w3.org/2000/svg"
   xmlns:sodipodi="http://sodipodi.sourceforge.net/DTD/sodipodi-0.dtd"
   xmlns:inkscape="http://www.inkscape.org/namespaces/inkscape"
   width="100mm"
   height="99.988907mm"
   viewBox="0 0 100 99.988907"
   version="1.1"
   id="svg4982"
   inkscape:version="0.92.3 (2405546, 2018-03-11)"
   sodipodi:docname="asean-logo.svg">
  <defs
     id="defs4976" />
  <sodipodi:namedview
     id="base"
     pagecolor="#ffffff"
     bordercolor="#666666"
     borderopacity="1.0"
     inkscape:pageopacity="0.0"
     inkscape:pageshadow="2"
     inkscape:zoom="0.98994949"
     inkscape:cx="451.40637"
     inkscape:cy="166.45353"
     inkscape:document-units="mm"
     inkscape:current-layer="g3820"
     showgrid="false"
     inkscape:pagecheckerboard="true"
     fit-margin-top="0"
     fit-margin-left="0"
     fit-margin-right="0"
     fit-margin-bottom="0"
     inkscape:window-width="1366"
     inkscape:window-height="732"
     inkscape:window-x="0"
     inkscape:window-y="0"
     inkscape:window-maximized="1" />
  <metadata
     id="metadata4979">
    <rdf:RDF>
      <cc:Work
         rdf:about="">
        <dc:format>image/svg+xml</dc:format>
        <dc:type
           rdf:resource="http://purl.org/dc/dcmitype/StillImage" />
        <dc:title></dc:title>
      </cc:Work>
    </rdf:RDF>
  </metadata>
  <g
     inkscape:label="Layer 1"
     inkscape:groupmode="layer"
     id="layer1"
     transform="translate(265.41423,-99.079148)">
    <g
       style="opacity:1;fill:#fcfcfc;fill-opacity:1"
       transform="translate(-247.22843,-28.663998)"
       id="g3820">
      <g
         id="g3473"
         style="fill:#fcfcfc;fill-opacity:1"
         transform="matrix(5.3675752,0,0,5.3675752,-216.38448,-1079.8515)">
        <path
           id="circle97285-3"
           transform="matrix(0.26458333,0,0,0.26458333,1.5257912,-19.579165)"
           d="M 169,924.31641 A 35.206085,35.20252 0 0 0 133.79297,959.51953 35.206085,35.20252 0 0 0 169,994.72266 35.206085,35.20252 0 0 0 204.20703,959.51953 35.206085,35.20252 0 0 0 169,924.31641 Z m -0.004,1.46679 c 18.62407,0 33.74219,15.1161 33.74219,33.73828 0,18.62219 -15.11812,33.73633 -33.74219,33.73633 -18.62406,0 -33.73437,-15.11414 -33.73437,-33.73633 0,-18.62218 15.11031,-33.73828 33.73437,-33.73828 z"
           style="fill:#fcfcfc;fill-opacity:1;stroke-width:0.20698839"
           inkscape:connector-curvature="0" />
        <path
           transform="matrix(0.26458333,0,0,0.26458333,1.5257912,-19.579165)"
           id="path97289-7"
           d="m 168.99609,927.04102 c -17.94514,0 -32.47851,14.5388 -32.47851,32.48242 0,17.94362 14.53337,32.48242 32.47851,32.48242 17.94515,0 32.48633,-14.53909 32.48633,-32.48242 0,-17.94333 -14.54118,-32.48242 -32.48633,-32.48242 z m -18.61132,10.50195 h 3.15625 c 0,7.10516 2.67643,13.02876 8.83398,18.48047 -6.15755,5.44863 -8.83398,11.333 -8.83398,18.44336 h -3.15625 c 0,-3.87192 2.61855,-14.33643 11.04296,-18.44336 -8.42441,-4.10768 -11.04296,-14.61332 -11.04296,-18.48047 z m 3.78711,0 h 3.15429 c 0,4.50106 1.60479,12.47606 6.625,18.48047 -5.02021,6.00388 -6.625,13.94177 -6.625,18.44336 h -3.15429 c -0.0785,-10.11273 5.67412,-15.75615 8.83398,-18.44336 -3.15986,-2.6851 -8.91246,-8.37305 -8.83398,-18.48047 z m 3.78515,0 h 3.15625 c -0.16369,4.10534 0.69335,13.50303 4.41602,18.48047 -3.72267,4.9714 -4.57971,14.33505 -4.41602,18.44336 h -3.15625 c -0.08,-9.32161 4.43944,-15.84021 6.62695,-18.44336 -2.18751,-2.60644 -6.70694,-9.1614 -6.62695,-18.48047 z m 3.78711,0 h 3.1543 c 0,4.97256 -0.0585,13.89853 2.20898,18.48047 -2.26751,4.57865 -2.20898,13.46539 -2.20898,18.44336 h -3.1543 c -0.16369,-9.00742 2.47654,-16.23296 4.41602,-18.44336 -1.93948,-2.21369 -4.57971,-9.47857 -4.41602,-18.48047 z m 3.78516,0 h 3.15429 v 36.92383 h -3.15429 c -0.0807,-6.79595 0.34406,-14.41487 2.20898,-18.44336 -1.86492,-4.02891 -2.28963,-11.69215 -2.20898,-18.48047 z m 3.78711,0 h 3.15429 c 0.0805,6.78832 -0.34395,14.45156 -2.20898,18.48047 1.86503,4.02849 2.28952,11.64741 2.20898,18.44336 h -3.15429 z m 3.78515,0 h 3.1543 c 0.1638,9.0019 -2.47665,16.26678 -4.41602,18.48047 1.93937,2.2104 4.57982,9.43605 4.41602,18.44336 h -3.1543 c 0,-4.97787 0.0584,-13.86471 -2.20898,-18.44336 2.2674,-4.58194 2.20898,-13.50791 2.20898,-18.48047 z m 3.78516,0 h 3.15625 c 0.0799,9.31907 -4.43955,15.87403 -6.62695,18.48047 2.1874,2.60315 6.70684,9.12175 6.62695,18.44336 h -3.15625 c 0.1638,-4.10831 -0.69336,-13.47196 -4.41602,-18.44336 3.72266,-4.97744 4.57982,-14.37513 4.41602,-18.48047 z m 3.78711,0 h 3.15429 c 0.0785,10.10742 -5.67412,15.79537 -8.83398,18.48047 3.15986,2.68721 8.91246,8.33063 8.83398,18.44336 h -3.15429 c 0,-4.50159 -1.60479,-12.43948 -6.625,-18.44336 5.02021,-6.00441 6.625,-13.97941 6.625,-18.48047 z m 3.78515,0 h 3.15625 c 0,3.86715 -2.61855,14.37279 -11.04296,18.48047 8.42441,4.10693 11.04296,14.57144 11.04296,18.44336 h -3.15625 c 0,-7.11026 -2.67643,-12.99473 -8.83398,-18.44336 6.15755,-5.45171 8.83398,-11.37531 8.83398,-18.48047 z m -30.40234,38.44141 c 0.88451,-10e-6 1.58005,0.18582 2.08984,0.56054 0.51415,0.37036 0.77149,0.87858 0.77149,1.52344 v 3.97461 c 0,0.31807 0.0258,0.54116 0.0781,0.67187 0.0523,0.12636 0.1576,0.22671 0.31446,0.30078 v 0.008 0.2539 h -1.01367 -1.01172 c -0.0828,-0.28757 -0.13792,-0.56924 -0.16407,-0.84375 l -0.006,-0.0117 c -0.58822,0.69714 -1.35031,1.04492 -2.28711,1.04492 -0.65793,0 -1.18898,-0.18779 -1.58984,-0.5625 -0.40086,-0.37908 -0.59961,-0.87587 -0.59961,-1.49024 0,-0.64922 0.17937,-1.1669 0.54102,-1.55468 0.36164,-0.39215 0.88924,-0.63807 1.58203,-0.73829 l 1.23633,-0.16992 c 0.32243,-0.0436 0.58923,-0.11808 0.80273,-0.22265 0.0915,-0.0436 0.16106,-0.12109 0.20899,-0.23438 0.0523,-0.11329 0.0717,-0.23001 0.0586,-0.34766 -0.0261,-0.20043 -0.128,-0.35741 -0.30664,-0.4707 -0.2135,-0.13507 -0.52102,-0.20312 -0.92188,-0.20312 -0.35729,0 -0.6355,0.0874 -0.83593,0.26172 -0.20043,0.17428 -0.30724,0.4202 -0.32032,0.73828 h -1.79687 c 0.0392,-0.83223 0.32239,-1.45521 0.84961,-1.86914 0.52722,-0.41394 1.30073,-0.61914 2.32031,-0.61914 z m 7.16992,0 c 0.9673,0 1.74727,0.21166 2.33985,0.63867 0.59257,0.42264 0.88867,0.98253 0.88867,1.67968 h -1.85742 c 0,-0.2745 -0.11327,-0.49458 -0.33985,-0.66015 -0.22657,-0.16557 -0.52762,-0.24805 -0.90234,-0.24805 -0.36165,0 -0.64482,0.0631 -0.84961,0.18945 -0.20043,0.12201 -0.29883,0.29537 -0.29883,0.51758 0,0.15686 0.11477,0.29101 0.3457,0.4043 0.22658,0.10893 0.62948,0.22866 1.20899,0.35937 1.1503,0.25708 1.91885,0.53875 2.30664,0.84375 0.38779,0.30501 0.58203,0.78393 0.58203,1.4375 0,0.69715 -0.28317,1.25855 -0.84961,1.68555 -0.56208,0.42265 -1.30479,0.63477 -2.22851,0.63477 -1.09366,0 -1.93672,-0.20867 -2.5293,-0.62696 -0.58822,-0.41829 -0.90219,-1.02835 -0.94141,-1.83007 h 1.90821 c 0.0131,0.32678 0.15713,0.58412 0.43164,0.77148 0.27886,0.183 0.65592,0.27344 1.13086,0.27344 0.37471,0 0.66585,-0.0631 0.875,-0.18946 0.2135,-0.13071 0.32031,-0.31203 0.32031,-0.54296 0,-0.16122 -0.10185,-0.29687 -0.30664,-0.41016 -0.20479,-0.10893 -0.56398,-0.2207 -1.07813,-0.33399 -1.20258,-0.27014 -2.00689,-0.55482 -2.41211,-0.85546 -0.40522,-0.29629 -0.60742,-0.75583 -0.60742,-1.37891 0,-0.70586 0.26034,-1.27567 0.7832,-1.70703 0.52722,-0.43572 1.22172,-0.65234 2.08008,-0.65234 z m 7.61328,0 c 1.08494,-10e-6 1.92005,0.32839 2.50391,0.98632 0.58822,0.65358 0.88086,1.58558 0.88086,2.79688 0.009,0.13943 -7.5e-4,0.28199 -0.0313,0.42578 h -4.84375 c 0.0436,0.56208 0.16826,0.98091 0.37305,1.25976 0.26143,0.34858 0.69663,0.52344 1.30664,0.52344 0.28321,0 0.54551,-0.081 0.78515,-0.24218 0.24401,-0.16122 0.38957,-0.35546 0.4375,-0.58204 h 1.90821 c -0.16122,0.7233 -0.53678,1.2916 -1.125,1.70118 -0.58387,0.40957 -1.31516,0.61328 -2.19532,0.61328 -1.08058,0 -1.91568,-0.33335 -2.5039,-1 -0.58387,-0.66665 -0.875,-1.61653 -0.875,-2.84961 0,-1.13723 0.29759,-2.02551 0.89453,-2.66602 0.59693,-0.64486 1.42558,-0.96679 2.48437,-0.96679 z m 7.56836,0 c 0.88451,-10e-6 1.58201,0.18582 2.0918,0.56054 0.51415,0.37036 0.77148,0.87858 0.77148,1.52344 v 3.97461 c 0,0.31807 0.0258,0.54116 0.0781,0.67187 0.0523,0.12636 0.15759,0.22671 0.31445,0.30078 v 0.008 0.2539 h -1.01367 -1.01367 c -0.0828,-0.28757 -0.13597,-0.56924 -0.16211,-0.84375 l -0.008,-0.0117 c -0.58822,0.69714 -1.35032,1.04492 -2.28711,1.04492 -0.65794,0 -1.18703,-0.18779 -1.58789,-0.5625 -0.40086,-0.37908 -0.60157,-0.87587 -0.60157,-1.49024 0,-0.64922 0.18133,-1.1669 0.54297,-1.55468 0.36165,-0.39215 0.88729,-0.63807 1.58008,-0.73829 l 1.23633,-0.16992 c 0.32243,-0.0436 0.59118,-0.11808 0.80469,-0.22265 0.0915,-0.0436 0.16105,-0.12109 0.20898,-0.23438 0.0523,-0.11329 0.0717,-0.23001 0.0586,-0.34766 -0.0262,-0.20043 -0.12995,-0.35741 -0.3086,-0.4707 -0.2135,-0.13507 -0.51906,-0.20312 -0.91992,-0.20312 -0.35729,0 -0.63746,0.0874 -0.83789,0.26172 -0.20043,0.17428 -0.30724,0.4202 -0.32031,0.73828 h -1.79688 c 0.0392,-0.83223 0.32239,-1.45521 0.84961,-1.86914 0.52722,-0.41394 1.30073,-0.61914 2.32031,-0.61914 z m 8.55469,0 c 0.74944,0 1.33712,0.22158 1.75977,0.66601 0.427,0.44443 0.63867,1.06096 0.63867,1.84961 v 4.7832 h -0.9336 -0.9414 v -4.44336 c 0,-0.44007 -0.0954,-0.76546 -0.28711,-0.97461 -0.18736,-0.2135 -0.477,-0.32031 -0.86914,-0.32031 -0.49236,0 -0.87093,0.14903 -1.13672,0.44531 -0.26143,0.29629 -0.39258,0.72353 -0.39258,1.28125 v 4.01172 h -0.93555 -0.9414 v -7.10937 h 0.88867 0.89648 v 1.05078 c 0.0741,-0.12636 0.15505,-0.24609 0.24219,-0.35938 0.46186,-0.58822 1.13157,-0.88085 2.01172,-0.88085 z m -16.14844,1.53515 c -0.48364,0 -0.85275,0.18433 -1.10547,0.55469 -0.15685,0.23529 -0.27012,0.5428 -0.33984,0.92187 h 2.90234 c -0.0436,-0.427 -0.15684,-0.76035 -0.33984,-1 -0.23964,-0.31807 -0.61175,-0.47656 -1.11719,-0.47656 z m -13.73242,2.32031 c -0.21786,0.122 -0.50599,0.2189 -0.86328,0.29297 l -0.69141,0.13086 c -0.32679,0.061 -0.57616,0.17427 -0.74609,0.33985 -0.16993,0.16121 -0.25391,0.36687 -0.25391,0.61523 0,0.28322 0.076,0.5048 0.22852,0.66602 0.1525,0.16121 0.36612,0.24218 0.64062,0.24218 0.6013,0 1.08022,-0.21212 1.4375,-0.63476 0.0697,-0.0828 0.12786,-0.20402 0.17579,-0.36524 0.0479,-0.16121 0.0723,-0.3182 0.0723,-0.4707 z m 22.35156,0 c -0.21786,0.122 -0.50404,0.2189 -0.86132,0.29297 l -0.69336,0.13086 c -0.32679,0.061 -0.57421,0.17427 -0.74414,0.33985 -0.16993,0.16121 -0.25586,0.36687 -0.25586,0.61523 0,0.28322 0.076,0.5048 0.22851,0.66602 0.1525,0.16121 0.36612,0.24218 0.64063,0.24218 0.60129,0 1.08021,-0.21212 1.4375,-0.63476 0.0697,-0.0828 0.1298,-0.20402 0.17773,-0.36524 0.0479,-0.16121 0.0703,-0.3182 0.0703,-0.4707 z"
           style="fill:#fcfcfc;fill-opacity:1;stroke-width:0.20698841"
           inkscape:connector-curvature="0" />
      </g>
    </g>
  </g>
</svg>
