<?xml version="1.0" encoding="UTF-8" standalone="no"?>
<!-- Created with Inkscape (http://www.inkscape.org/) -->

<svg
   xmlns:dc="http://purl.org/dc/elements/1.1/"
   xmlns:cc="http://creativecommons.org/ns#"
   xmlns:rdf="http://www.w3.org/1999/02/22-rdf-syntax-ns#"
   xmlns:svg="http://www.w3.org/2000/svg"
   xmlns="http://www.w3.org/2000/svg"
   xmlns:sodipodi="http://sodipodi.sourceforge.net/DTD/sodipodi-0.dtd"
   xmlns:inkscape="http://www.inkscape.org/namespaces/inkscape"
   width="107.15994mm"
   height="100.00011mm"
   viewBox="0 0 107.15994 100.00011"
   version="1.1"
   id="svg5782"
   inkscape:version="0.92.3 (2405546, 2018-03-11)"
   sodipodi:docname="dikti-logo.svg">
  <defs
     id="defs5776" />
  <sodipodi:namedview
     id="base"
     pagecolor="#ffffff"
     bordercolor="#666666"
     borderopacity="1.0"
     inkscape:pageopacity="0.0"
     inkscape:pageshadow="2"
     inkscape:zoom="0.35"
     inkscape:cx="591.2087"
     inkscape:cy="77.885886"
     inkscape:document-units="mm"
     inkscape:current-layer="layer1"
     showgrid="false"
     inkscape:pagecheckerboard="true"
     fit-margin-top="0"
     fit-margin-left="0"
     fit-margin-right="0"
     fit-margin-bottom="0"
     inkscape:window-width="1366"
     inkscape:window-height="732"
     inkscape:window-x="0"
     inkscape:window-y="0"
     inkscape:window-maximized="1" />
  <metadata
     id="metadata5779">
    <rdf:RDF>
      <cc:Work
         rdf:about="">
        <dc:format>image/svg+xml</dc:format>
        <dc:type
           rdf:resource="http://purl.org/dc/dcmitype/StillImage" />
        <dc:title></dc:title>
      </cc:Work>
    </rdf:RDF>
  </metadata>
  <g
     inkscape:label="Layer 1"
     inkscape:groupmode="layer"
     id="layer1"
     transform="translate(170.78706,-69.440533)">
    <path
       style="opacity:1;fill:#fcfcfc;fill-opacity:1;stroke-width:0.07653239"
       d="m -158.65963,169.35464 c -0.12571,-0.0736 -0.13357,-0.43356 -0.13357,-5.84809 v -5.77003 l 0.17,-0.11928 c 0.20071,-0.14 1.58082,-0.17071 1.82482,-0.0357 0.14428,0.0771 0.14785,0.22286 0.14785,5.87767 0,4.40784 -0.0214,5.82046 -0.0921,5.89024 -0.11499,0.115 -1.72282,0.12286 -1.91717,0.0143 z m 58.5409,0.0357 c -0.0286,-0.0286 -0.05,-2.67873 -0.05,-5.89038 0,-5.69475 0.004,-5.84117 0.14785,-5.91846 0.213569,-0.11428 1.552971,-0.10142 1.711753,0.0143 0.118569,0.0886 0.129283,0.55142 0.132141,5.89581 0.0019,3.19008 -0.01429,5.83324 -0.04286,5.87388 -0.05,0.0821 -1.818314,0.10286 -1.898814,0.0214 z m 25.528055,-0.0357 c -0.07214,-0.0721 -0.09357,-1.40754 -0.09357,-5.85245 v -5.75853 l 0.169996,-0.11928 c 0.23071,-0.16142 1.985103,-0.17357 2.117029,-0.0143 0.06429,0.0757 0.08143,1.69497 0.06429,5.95039 l -0.02143,5.84638 -1.073265,0.0214 c -0.769913,0.0143 -1.099835,-0.006 -1.167119,-0.0729 z m -95.472225,-0.22285 c -0.12571,-0.0736 -0.13357,-0.42642 -0.13357,-5.6966 v -5.61867 l 0.16643,-0.0893 c 0.12214,-0.0643 1.02469,-0.0779 3.42479,-0.0429 3.56907,0.0429 3.83592,0.0778 4.63155,0.54356 0.41642,0.24428 0.88483,0.6407 0.88483,0.74913 0,0.0429 0.0643,0.16714 0.14429,0.27856 0.52499,0.74042 0.58641,2.25574 0.12785,3.14258 -0.22356,0.43214 -0.81584,1.00413 -1.2844,1.24062 -0.24285,0.12286 -0.44142,0.25428 -0.44142,0.29285 0,0.0357 0.19785,0.22071 0.43928,0.40357 0.90484,0.68784 1.18683,1.32268 1.28411,2.89129 0.0286,0.4 0.1,0.96491 0.16714,1.25562 0.11572,0.50285 0.115,0.53356 -0.0214,0.63142 -0.0936,0.0714 -0.3757,0.10285 -0.84455,0.10285 -0.98191,0 -0.97698,0.005 -1.13198,-1.33933 -0.22214,-1.92667 -0.59998,-2.67759 -1.56604,-3.11101 -0.66784,-0.29928 -1.59411,-0.44784 -2.79915,-0.44784 -1.48019,0 -1.35169,-0.235 -1.34398,2.4608 0.005,1.60061 -0.0214,2.2501 -0.0836,2.32846 -0.10785,0.12999 -1.40661,0.15142 -1.62132,0.0286 z m 6.35344,-6.4758 c 0.79263,-0.20356 1.1667,-0.72027 1.1647,-1.60832 -0.002,-0.80827 -0.24929,-1.32305 -0.7642,-1.59004 -0.39214,-0.20285 -1.32576,-0.28071 -3.08666,-0.25571 -1.62561,0.0214 -1.75496,0.0357 -1.85596,0.17357 -0.085,0.11642 -0.10857,0.47785 -0.10714,1.68375 6.4e-4,0.84434 0.0286,1.5774 0.0571,1.62904 0.0429,0.0643 0.46714,0.1 1.5104,0.115 1.92696,0.0286 2.50559,7e-5 3.07822,-0.14714 z m 9.27696,6.44202 c -0.14928,-0.18 -0.10571,-1.19676 0.0571,-1.31855 0.0964,-0.0721 0.77306,-0.0957 2.76116,-0.0957 2.83259,0 3.29772,-0.05 3.78257,-0.40642 0.57356,-0.42214 0.75784,-1.36826 0.41499,-2.13624 -0.36999,-0.82942 -0.5457,-0.88599 -2.89051,-0.93241 -1.21569,-0.0214 -2.03153,-0.075 -2.34203,-0.14643 -1.03969,-0.23857 -1.66696,-0.7187 -2.06781,-1.58311 -0.15357,-0.33214 -0.20286,-0.57999 -0.23143,-1.17048 -0.0357,-0.67427 -0.0143,-0.80598 0.17,-1.3149 0.31642,-0.86705 0.69784,-1.34111 1.46983,-1.82418 0.64427,-0.40285 1.09419,-0.45356 4.34984,-0.48784 1.75003,-0.0143 3.02737,-0.002 3.08786,0.0357 0.13929,0.0957 0.155,1.25697 0.0214,1.42097 -0.0836,0.10071 -0.50999,0.12071 -3.01787,0.14 -2.86508,0.0214 -2.92772,0.0286 -3.28414,0.19785 -0.39571,0.19071 -0.55214,0.41785 -0.7172,1.04498 -0.18143,0.68713 0.0936,1.3564 0.68498,1.66654 0.29,0.15214 0.47642,0.17142 2.07903,0.21999 0.9682,0.0286 2.01125,0.0914 2.31788,0.13714 1.06077,0.16072 1.77504,0.70499 2.28832,1.74333 l 0.28499,0.57641 -0.002,1.00798 c -0.002,1.00441 -0.003,1.0102 -0.28642,1.5999 -0.41214,0.85605 -0.90734,1.2344 -2.07039,1.58061 -0.49642,0.14785 -0.72199,0.15714 -3.64507,0.15714 -2.69523,0 -3.12858,-0.0143 -3.21215,-0.11643 z m 13.82815,0.0643 c -0.0286,-0.0286 -0.05,-2.20003 -0.05,-4.82654 0,-3.14558 -0.0286,-4.82612 -0.0793,-4.92362 -0.075,-0.14 -0.17785,-0.14785 -1.86318,-0.14785 -2.12953,0 -2.03724,0.0357 -2.03724,-0.86434 0,-0.49999 0.0214,-0.59571 0.14785,-0.66356 0.0971,-0.05 1.74547,-0.0793 4.81883,-0.0793 4.53955,0 4.67305,0.004 4.75005,0.14786 0.0986,0.18499 0.10214,1.15119 0.004,1.30604 -0.0571,0.095 -0.39142,0.12143 -1.93132,0.15286 l -1.85882,0.0357 -0.0357,4.8289 c -0.0286,3.93807 -0.0572,4.85234 -0.14357,4.95548 -0.085,0.10285 -0.25285,0.12642 -0.88649,0.12642 -0.42999,0 -0.80441,-0.0214 -0.83248,-0.05 z m 9.63031,-0.13642 c -1.19633,-0.345 -1.6874,-0.66999 -2.24339,-1.48433 -0.43642,-0.63927 -0.59427,-0.97648 -0.78005,-1.6634 -0.21285,-0.78762 -0.29214,-2.71087 -0.15428,-3.72964 0.24142,-1.77989 1.18504,-3.24172 2.5298,-3.91892 0.57428,-0.28928 1.02391,-0.39785 2.06375,-0.49642 0.82284,-0.0786 3.97992,-0.10142 4.16477,-0.0286 0.0979,0.0357 0.12071,0.17643 0.12071,0.7177 0,0.45357 -0.0357,0.69785 -0.0986,0.75284 -0.0643,0.05 -0.91055,0.0914 -2.35338,0.10929 -1.5114,0.0143 -2.34909,0.0571 -2.54016,0.12214 -0.5657,0.18714 -1.24976,0.86255 -1.56218,1.54232 -0.14072,0.30643 -0.33857,1.35233 -0.28357,1.49683 0.0214,0.0571 0.12357,0.11786 0.22857,0.145 0.10571,0.0286 1.59975,0.0429 3.32064,0.0357 1.7209,-0.005 3.16465,0.0143 3.20837,0.0357 0.0429,0.0286 0.0793,0.34213 0.0793,0.73077 0,0.60356 -0.0143,0.6907 -0.15357,0.76355 -0.10285,0.0571 -1.20997,0.0793 -3.36479,0.0729 -1.76632,-0.005 -3.25007,0.0143 -3.29722,0.0429 -0.11785,0.0729 -0.0214,0.88176 0.16857,1.38632 0.23714,0.63785 0.71213,1.30498 1.10548,1.55454 0.60785,0.38571 1.16548,0.46214 3.34986,0.46214 1.07212,0 2.00382,0.0214 2.07039,0.0428 0.0978,0.0357 0.12071,0.17643 0.12071,0.71885 0,0.54284 -0.0214,0.68141 -0.12071,0.71884 -0.0643,0.0286 -1.21169,0.0429 -2.54466,0.0357 -2.29403,-0.005 -2.45638,-0.0143 -3.03594,-0.18214 z m 7.73527,0.0643 c -0.10714,-0.10714 -0.12,-0.7212 -0.12,-5.60817 0,-4.84298 0.007,-5.50775 0.11929,-5.65789 0.10857,-0.155 0.18142,-0.17 0.83641,-0.17 0.54999,0 0.74527,0.0286 0.83748,0.12072 0.10429,0.10428 0.12071,0.45499 0.12071,2.67858 0,2.14068 0.0143,2.55845 0.10714,2.55845 0.0571,0 1.29055,-1.20647 2.73709,-2.68101 l 2.63002,-2.68102 1.03119,0.0214 c 1.27434,0.0286 1.31791,0.0793 0.60285,0.73134 -0.26357,0.24071 -0.63713,0.59284 -0.82877,0.78248 -0.19142,0.18929 -1.20062,1.14748 -2.24238,2.12896 -1.13634,1.07055 -1.89425,1.84075 -1.89425,1.92482 0,0.14642 0.7747,0.92234 3.82664,3.83264 0.98919,0.94326 1.83075,1.77867 1.87017,1.85639 0.11857,0.23499 -0.0786,0.28071 -1.21319,0.28142 l -1.06497,10e-4 -0.69499,-0.7107 c -0.38214,-0.3907 -1.58804,-1.63061 -2.67916,-2.75523 -1.09119,-1.12455 -2.02967,-2.0446 -2.08546,-2.0446 -0.0821,0 -0.10143,0.50285 -0.10143,2.67588 0,3.11808 0.0986,2.83444 -0.98448,2.83444 -0.52427,0 -0.71712,-0.0286 -0.80862,-0.12071 z m 11.18742,0.0357 c -0.12571,-0.0728 -0.13428,-0.42285 -0.13428,-5.62281 v -5.54482 l 0.16356,-0.16357 c 0.16286,-0.16285 0.17429,-0.16357 3.19523,-0.12285 3.25564,0.0429 3.59464,0.0814 4.37098,0.48213 0.54142,0.27928 1.16148,0.81141 1.47361,1.26462 0.33571,0.48713 0.82006,1.56054 0.82142,1.8196 5e-4,0.0993 0.0571,0.39214 0.12642,0.65071 0.20214,0.75762 0.19357,2.05874 -0.0214,3.14893 -0.24356,1.23876 -0.35856,1.58661 -0.73155,2.21753 -0.54928,0.92891 -1.21219,1.41697 -2.38567,1.75704 -0.67784,0.19642 -0.67856,0.19642 -3.71135,0.19356 -1.91775,-0.001 -3.08287,-0.0357 -3.16751,-0.08 z m 5.6976,-1.56025 c 0.61284,-0.14214 1.31062,-0.51713 1.5459,-0.83148 0.22214,-0.29714 0.4607,-0.76456 0.63784,-1.25284 0.20214,-0.55641 0.19571,-3.23436 -0.0143,-3.88778 -0.25428,-0.81169 -0.50142,-1.26783 -0.89441,-1.65046 -0.59856,-0.58285 -0.8287,-0.63285 -3.0918,-0.6657 -1.75311,-0.0286 -1.91882,-0.0143 -2.00896,0.10642 -0.12285,0.16714 -0.145,7.77949 -0.0214,8.09777 l 0.0743,0.19642 h 1.64253 c 1.17227,0 1.78118,-0.0357 2.12646,-0.11214 z m 10.513574,1.52261 c -0.107141,-0.10714 -0.119998,-0.72277 -0.119998,-5.6251 0,-6.47987 -0.117855,-5.81103 1.027694,-5.81103 0.554274,0 0.749556,0.0286 0.84184,0.12072 0.104284,0.10428 0.120712,0.45499 0.120712,2.67858 0,1.99525 0.02143,2.5586 0.09571,2.55917 0.05714,7.8e-4 1.26976,-1.19634 2.704732,-2.65952 l 2.608947,-2.66023 1.054622,-0.0286 c 0.6907,-0.0143 1.083407,0.004 1.137906,0.0571 0.09214,0.0921 0.03571,0.14642 -3.377575,3.40972 -1.144763,1.09369 -2.081387,2.04353 -2.081387,2.11081 0,0.15428 5.037827,5.10504 5.567745,5.4716 0.199282,0.13786 0.227138,0.37928 0.05,0.44642 -0.228567,0.0879 -2.05303,0.0429 -2.220241,-0.05 -0.135712,-0.0793 -2.259955,-2.2236 -4.707834,-4.75377 -0.393564,-0.40642 -0.693557,-0.65927 -0.746199,-0.62641 -0.06428,0.0357 -0.08714,0.79448 -0.08714,2.68723 0,2.52495 -0.0055,2.63638 -0.147855,2.71237 -0.08143,0.0429 -0.47499,0.0793 -0.874625,0.0793 -0.55856,0 -0.754485,-0.0286 -0.846911,-0.12071 z m 14.397282,0.0214 c -0.118569,-0.0879 -0.130712,-0.49499 -0.148569,-4.95547 l -0.02143,-4.85983 -1.84432,-0.0357 c -1.405972,-0.0286 -1.874462,-0.0643 -1.970746,-0.14285 -0.09785,-0.0814 -0.126426,-0.24071 -0.126426,-0.70499 0,-0.51499 0.02143,-0.61141 0.147854,-0.67927 0.22571,-0.12071 9.511595,-0.10857 9.632807,0.0143 0.127854,0.12785 0.124283,1.33226 -0.0038,1.41518 -0.05714,0.0357 -0.922196,0.0793 -1.932461,0.1 l -1.836749,0.0357 -0.01429,4.85983 c -0.01429,4.4607 -0.02857,4.86769 -0.148569,4.95548 -0.175711,0.12999 -1.555254,0.12999 -1.730894,0 z M -170.78417,155.3075 c -0.0357,-0.0864 0.25714,-0.42999 0.98384,-1.16712 2.23017,-2.26153 4.57112,-4.85905 5.84088,-6.48087 0.25285,-0.32285 0.64927,-0.81577 0.8807,-1.09591 1.50847,-1.82275 4.24077,-5.81181 5.42274,-7.91698 0.9857,-1.75554 1.50497,-2.75002 2.17103,-4.15763 0.41428,-0.87534 1.05377,-2.31603 1.05377,-2.37374 0,-0.0286 0.15856,-0.46642 0.35285,-0.97634 0.68855,-1.80825 1.04448,-2.93594 1.36847,-4.33255 0.0728,-0.31571 0.18642,-0.7462 0.25142,-0.95663 0.0643,-0.21071 0.145,-0.53784 0.17857,-0.72705 0.0357,-0.18929 0.11428,-0.61999 0.17928,-0.95663 0.0643,-0.33713 0.17071,-0.99083 0.23357,-1.45361 0.0643,-0.46285 0.155,-1.04819 0.205,-1.30097 0.0571,-0.30071 0.0914,-1.42698 0.0928,-3.25323 0.002,-2.32159 -0.0214,-2.93565 -0.13357,-3.63535 -0.3857,-2.38231 -0.56856,-3.30986 -0.8457,-4.28577 -0.0571,-0.21 -0.21499,-0.7787 -0.34499,-1.26283 -0.13,-0.48428 -0.28356,-0.98341 -0.34142,-1.1097 -0.0571,-0.12642 -0.27928,-0.65998 -0.49142,-1.18626 -0.8667,-2.14531 -0.91048,-2.2371 -2.0276,-4.24756 -0.75627,-1.36097 -2.00403,-3.194788 -3.15051,-4.630116 -1.17333,-1.468971 -3.57178,-3.968206 -5.0389,-5.250466 -0.6857,-0.599274 -0.7337,-0.770413 -0.20571,-0.733414 0.18786,0.01429 0.46285,0.05714 0.60999,0.09357 0.14714,0.03571 0.49142,0.104284 0.76534,0.14714 0.66785,0.104998 1.23041,0.208568 1.87504,0.346422 0.4857,0.103569 1.76832,0.340707 2.75515,0.509275 0.44714,0.07643 1.16391,0.222853 2.18117,0.44642 0.4,0.08786 0.89327,0.192853 1.09648,0.233567 0.20357,0.03571 0.40142,0.09357 0.43999,0.117855 0.0429,0.02143 0.23428,0.07214 0.43428,0.107855 0.2,0.03571 0.67356,0.139282 1.05212,0.231423 0.37857,0.09143 1.13655,0.268567 1.68375,0.39285 0.54714,0.124283 1.16712,0.27428 1.37755,0.334279 0.37499,0.105712 0.64784,0.174996 1.4924,0.379278 0.23142,0.05714 0.60998,0.159282 0.84184,0.228567 0.23142,0.07143 0.92034,0.260709 1.53068,0.424277 1.48211,0.398563 1.86089,0.50499 2.44902,0.687843 0.27357,0.085 0.54428,0.154997 0.6007,0.155711 0.0571,2.86e-4 0.21214,0.05 0.34428,0.10857 0.13286,0.05714 0.65428,0.234281 1.15955,0.389992 1.84146,0.564988 2.9198,0.906196 3.44393,1.090692 1.57833,0.555703 3.66386,1.27776 4.14299,1.434757 0.29999,0.09857 0.60999,0.21571 0.68856,0.261423 0.0786,0.04286 0.5557,0.23642 1.06119,0.42428 1.69418,0.62998 2.75237,1.04255 3.13787,1.22354 0.4607,0.21643 1.7861,0.73077 1.88274,0.73077 0.11857,0 0.0757,-0.19356 -0.12785,-0.57713 -0.18357,-0.34499 -0.19714,-0.44213 -0.2,-1.4164 -0.003,-1.058046 0.0864,-1.52718 0.44428,-2.34202 0.0571,-0.132855 0.10571,-0.278566 0.10571,-0.322851 0,-0.234995 1.08998,-2.206741 1.70504,-3.083938 2.35538,-3.359361 6.02816,-6.52644 10.38701,-8.957106 0.18928,-0.105712 0.46499,-0.25928 0.61213,-0.340707 0.14714,-0.08143 0.43999,-0.212853 0.6507,-0.290709 0.21071,-0.07857 0.62356,-0.256423 0.91841,-0.394992 0.54713,-0.258566 0.79155,-0.351421 1.79846,-0.689272 0.31571,-0.105712 0.64285,-0.220709 0.72706,-0.254994 0.0843,-0.03571 0.4457,-0.119998 0.80355,-0.189282 0.35785,-0.07143 0.82277,-0.163569 1.0332,-0.208568 0.20999,-0.04286 0.86877,-0.09857 1.46275,-0.119997 0.98834,-0.03571 1.14619,-0.02143 1.85897,0.162139 1.20583,0.310708 1.69789,0.626416 2.25095,1.445543 0.53928,0.799055 0.66142,2.292311 0.29714,3.653141 -0.33357,1.246903 -1.4079,3.304505 -2.41824,4.630264 -1.35054,1.77225 -4.00085,4.375698 -5.78738,5.685171 -3.2108,2.353168 -5.60953,3.614288 -8.83804,4.646338 -0.93634,0.29928 -2.2326,0.53927 -3.21436,0.59498 -0.35714,0.0214 -0.415,0.18786 -0.115,0.335 4.78333,2.34638 7.7067,3.85992 9.60481,4.97261 0.37856,0.22214 0.84376,0.49428 1.03312,0.60428 1.48183,0.86326 1.87267,1.09826 2.41274,1.45082 0.33785,0.22 0.73384,0.46285 0.88012,0.53856 0.32714,0.16929 3.7315,2.4376 5.04926,3.36444 0.41427,0.29142 2.82151,2.07038 3.27172,2.41788 0.575699,0.44427 0.575699,0.44499 -0.36357,1.07362 -3.41193,2.28481 -6.2918,3.95692 -9.56652,5.55453 -1.65432,0.80713 -2.89744,1.40397 -3.09958,1.48818 -0.78656,0.32785 -2.08017,0.8327 -2.13453,0.83277 -0.0357,7e-5 -0.21,0.0643 -0.38285,0.14429 -0.33142,0.15142 -0.87341,0.37356 -1.38597,0.56784 -0.16857,0.0643 -0.87434,0.29142 -1.5689,0.50642 -3.44729,1.06491 -3.07172,0.96184 -4.74505,1.30219 -2.28002,0.46356 -3.18293,0.58641 -5.21539,0.70641 -3.46865,0.20571 -6.59151,-0.28285 -8.67347,-1.35668 -1.84861,-0.95341 -3.25951,-2.36124 -4.06035,-4.05149 -0.34928,-0.73678 -0.49713,-1.20062 -0.80398,-2.5256 -0.16428,-0.70784 -0.23357,-2.0631 -0.15143,-2.94665 0.08,-0.85406 0.11714,-1.08541 0.46571,-2.8698 0.18714,-0.95755 0.87527,-3.10201 1.25247,-3.90214 0.13929,-0.29499 0.27928,-0.61999 0.31071,-0.72255 0.0286,-0.10215 0.26,-0.60999 0.50713,-1.12884 0.24714,-0.51856 0.45,-0.96255 0.45,-0.98641 0,-0.0214 0.0821,-0.15285 0.18285,-0.28713 0.10071,-0.13429 0.27642,-0.43285 0.39071,-0.66428 0.11428,-0.23142 0.48427,-0.87834 0.82248,-1.43747 0.86841,-1.43726 0.68641,-1.48561 -0.35071,-0.0936 -0.29785,0.39999 -0.78684,1.03698 -1.0869,1.41583 -0.3,0.37856 -0.64571,0.84377 -0.76856,1.03319 -0.12286,0.18929 -0.44856,0.65428 -0.7242,1.0332 -2.10132,2.88744 -4.65526,7.49242 -5.46275,9.84987 -0.105,0.30714 -0.27999,0.79956 -0.38785,1.09427 -0.43142,1.1769 -0.3907,1.04026 -0.72577,2.3998 -0.29714,1.20491 -0.38499,2.07818 -0.38499,3.82964 0,2.43795 0.22071,3.37308 1.1829,5.02076 0.6957,1.19119 1.95389,2.35874 3.2588,3.02444 0.5107,0.26071 1.76839,0.77348 2.06353,0.84155 0.91226,0.21 1.49732,0.33071 2.10467,0.43285 0.93476,0.15714 4.2032,0.22285 5.24946,0.10571 1.79854,-0.20071 2.05011,-0.23285 2.70988,-0.34071 1.35968,-0.22213 1.7846,-0.31213 3.5205,-0.74148 1.35197,-0.33499 3.70792,-1.01141 4.36234,-1.25326 0.29499,-0.10857 0.77684,-0.28 1.07148,-0.38071 1.1579,-0.39499 2.69016,-0.95419 2.90823,-1.06183 0.12642,-0.0643 0.6257,-0.27714 1.10969,-0.47714 1.86232,-0.7702 2.50152,-1.04876 2.90272,-1.26497 0.22857,-0.12286 0.44642,-0.22357 0.48499,-0.22357 0.0986,0 3.74043,-1.79325 4.09049,-2.01417 0.15929,-0.10071 0.37285,-0.20928 0.47357,-0.24143 0.10142,-0.0357 0.35213,-0.15714 0.55784,-0.27856 0.37857,-0.22285 0.67356,-0.28571 0.67356,-0.14286 0,0.0429 -0.16643,0.31 -0.36999,0.59285 -0.20286,0.28357 -0.53571,0.79091 -0.73863,1.12769 -0.20285,0.33714 -0.44785,0.73277 -0.54499,0.88013 -0.28499,0.43427 -0.70141,1.21126 -1.06534,1.98981 -0.18713,0.4 -0.40927,0.85441 -0.49427,1.01005 -0.085,0.15572 -0.155,0.32786 -0.155,0.38285 -2.1e-4,0.0572 -0.05,0.195 -0.11071,0.31214 -0.0571,0.11643 -0.23285,0.56785 -0.38071,1.00319 -0.57141,1.6734 -0.72055,3.83057 -0.35928,5.21333 0.35643,1.36376 1.34862,2.52938 2.72666,3.20172 0.69499,0.33928 1.17062,0.4757 2.16225,0.62356 1.54582,0.22999 4.55126,0.08 6.14216,-0.30571 0.23142,-0.0571 0.66213,-0.15928 0.95662,-0.22928 0.69356,-0.165 1.08427,-0.28357 3.271579,-0.99505 1.753465,-0.56999 4.956186,-1.96425 6.569583,-2.85952 0.633558,-0.35142 1.061121,-0.4907 1.110549,-0.36213 0.02143,0.0571 -0.149997,0.44285 -0.380707,0.85877 -1.031336,1.8551 -1.375687,3.98492 -0.818983,5.06482 0.389277,0.75556 1.139905,1.30648 2.125885,1.56076 0.51499,0.13214 0.761985,0.14857 1.78375,0.11642 0.652844,-0.0214 1.30676,-0.0736 1.454114,-0.11714 0.14714,-0.0428 0.526418,-0.13571 0.84184,-0.20571 1.081836,-0.23713 3.638141,-1.15776 4.452554,-1.60318 0.181424,-0.0993 0.657843,-0.34142 1.057764,-0.53642 1.028194,-0.50284 2.162814,-1.1524 2.322882,-1.32933 0.130712,-0.14499 0.127854,-0.16714 -0.09928,-0.61713 -0.129997,-0.25642 -0.284994,-0.46642 -0.344279,-0.46642 -0.05714,0 -0.584988,0.235 -1.165976,0.52214 -3.067581,1.51439 -4.69312,1.97067 -6.988217,1.96167 -0.986337,-0.004 -1.682609,-0.13 -2.204384,-0.40071 -0.363564,-0.18856 -0.947838,-0.69498 -1.183548,-1.02555 -0.631416,-0.88712 -0.607845,-2.82987 0.05,-4.1712 0.203567,-0.41285 0.450705,-0.60427 1.515898,-1.16862 0.239995,-0.12714 0.860126,-0.50427 1.377615,-0.83705 0.517133,-0.33285 1.177977,-0.75527 1.467685,-0.9382 0.289994,-0.18285 0.761842,-0.50499 1.049336,-0.71513 0.287852,-0.21071 0.627131,-0.44142 0.755199,-0.51284 0.315708,-0.17643 0.295709,-0.35928 -0.09286,-0.84249 -0.178568,-0.22213 -0.423563,-0.53641 -0.54356,-0.69712 -0.119998,-0.16072 -0.267852,-0.31143 -0.327851,-0.335 -0.113569,-0.0429 -0.556417,0.20643 -1.78775,1.01091 -0.767341,0.50142 -2.709088,1.65118 -3.290934,1.94903 -2.456665,1.25769 -3.815923,1.85111 -6.122591,2.67273 -1.027479,0.36643 -1.886533,0.61928 -2.640375,0.7782 -0.168568,0.0357 -0.52999,0.11786 -0.803556,0.18143 -0.822122,0.19357 -2.915652,0.42428 -3.840062,0.42428 -2.67609,-0.002 -4.5467,-0.65071 -5.88767,-2.04161 -0.93584,-0.97091 -1.39654,-2.0971 -1.49683,-3.65928 -0.05,-0.72884 0.11429,-2.15196 0.33357,-2.94666 0.21714,-0.78627 0.87541,-2.48409 1.30104,-3.35428 0.46285,-0.94613 0.6207,-1.10848 1.5159,-1.56033 0.25214,-0.12786 0.61427,-0.34428 0.80363,-0.48071 0.18928,-0.13714 0.55141,-0.3557 0.80355,-0.4857 0.25214,-0.13 0.75192,-0.42571 1.10969,-0.65856 0.35785,-0.23285 0.75392,-0.47927 0.8802,-0.54856 0.5457,-0.30071 4.305343,-2.80187 5.931167,-3.9462 0.717272,-0.50499 0.729914,-0.50571 1.30376,-0.0722 1.687395,1.27541 6.903004,6.36359 9.104674,8.88225 0.273566,0.31285 0.669987,0.7652 0.880125,1.00477 0.209996,0.23999 0.554989,0.64927 0.765342,0.90977 0.828269,1.02612 1.290046,1.53347 1.395615,1.53347 0.08928,0 1.993888,-1.38326 2.655875,-1.92847 0.08643,-0.0714 0.48499,-0.39642 0.884839,-0.7227 1.631468,-1.32997 5.036685,-4.63612 5.79417,-5.62545 0.117855,-0.15357 0.472133,-0.58428 0.787627,-0.95727 0.315708,-0.37356 0.797841,-1.00048 1.071478,-1.39419 0.273566,-0.39356 0.619988,-0.87555 0.770413,-1.07083 0.535704,-0.69642 1.734823,-2.81109 2.176099,-3.83714 0.154283,-0.35785 0.324994,-0.75384 0.379993,-0.88005 0.290708,-0.66428 0.776913,-2.29653 0.889553,-2.9848 0.115712,-0.70784 0.116427,-2.25095 0.0011,-2.85259 -0.201424,-1.05269 -0.962052,-2.36916 -1.770464,-3.06558 -1.753679,-1.51054 -5.088255,-1.99739 -8.799109,-1.28476 -1.670895,0.32071 -1.810249,0.38642 -2.682232,1.26462 -0.443562,0.44642 -1.341759,1.29876 -3.398289,3.22422 -1.083621,1.01455 -3.610856,3.22679 -4.368198,3.82378 -0.239995,0.18928 -0.600702,0.48214 -0.801627,0.6507 -0.20071,0.16857 -0.647129,0.52999 -0.991694,0.80363 -0.344279,0.27357 -0.860483,0.68713 -1.145834,0.91841 -0.285709,0.23142 -0.687129,0.54785 -0.893482,0.70284 -2.831086,2.12982 -3.045367,2.28203 -3.211221,2.28203 -0.344279,0 -2.865014,-1.92689 -2.865014,-2.18974 0,-0.0571 0.160711,-0.20928 0.357136,-0.34428 0.196424,-0.135 0.712128,-0.50713 1.146048,-0.82641 0.434277,-0.32 1.00448,-0.73577 1.267832,-0.9252 0.263566,-0.18928 1.078478,-0.82655 1.811463,-1.41583 0.732843,-0.58927 1.4224,-1.13848 1.532112,-1.2204 0.760628,-0.56785 4.475839,-3.88671 4.987186,-4.45506 0.107855,-0.11999 0.331422,-0.33999 0.497133,-0.48999 0.789341,-0.71355 3.172222,-3.25293 4.452839,-4.74497 0.304994,-0.35499 0.683558,-0.79534 0.84184,-0.97841 0.158568,-0.18357 0.319279,-0.38999 0.357136,-0.45928 0.03571,-0.0714 0.209996,-0.29571 0.382849,-0.50284 0.17214,-0.20714 0.382135,-0.46928 0.465705,-0.58285 0.08428,-0.11357 0.462848,-0.62213 0.841912,-1.13062 0.378564,-0.507846 0.802198,-1.089548 0.940767,-1.291973 0.962409,-1.405614 1.369401,-2.043816 2.061101,-3.232006 0.754771,-1.296831 0.941624,-1.641896 1.287688,-2.378595 0.187854,-0.399992 0.396421,-0.830341 0.464277,-0.956624 0.242138,-0.453562 1.010765,-2.305525 1.143263,-2.75523 0.07428,-0.252138 0.232138,-0.751842 0.349993,-1.109692 0.304993,-0.922053 0.450705,-1.56604 0.738056,-3.252578 0.161425,-0.947838 0.176425,-2.897513 0.02857,-3.711854 -0.159283,-0.873911 -0.524275,-2.174456 -0.692129,-2.461022 -0.08214,-0.140711 -0.209281,-0.410706 -0.282851,-0.599988 -0.316423,-0.815983 -1.544541,-2.228455 -2.591734,-2.980869 -1.293617,-0.929409 -2.347596,-1.363615 -4.722834,-1.945603 -1.672895,-0.409992 -6.100091,-0.414278 -7.853342,-0.0055 -0.266423,0.06428 -0.591417,0.112855 -0.721914,0.112855 -0.129997,0 -0.412849,0.05 -0.626416,0.108569 -0.339279,0.09428 -1.167048,0.260709 -1.925961,0.385706 -0.229996,0.03571 -0.820912,0.191425 -2.36331,0.611417 -0.419277,0.114283 -0.856554,0.256423 -0.972052,0.316422 -0.26428,0.13714 -0.609273,0.144997 -0.557846,0.01428 0.02143,-0.05714 0.303566,-0.224281 0.629273,-0.381421 0.659273,-0.318565 3.967349,-1.653252 4.801118,-1.936961 0.294994,-0.1 0.742342,-0.255709 0.994909,-0.344278 0.252137,-0.08928 0.665701,-0.22571 0.918338,-0.303566 0.252138,-0.07785 0.805913,-0.261423 1.22969,-0.409277 0.673558,-0.234281 2.380524,-0.714843 3.170936,-0.893125 0.995909,-0.224996 2.572377,-0.562846 3.023154,-0.648559 0.294994,-0.05714 0.587131,-0.120711 0.650701,-0.142854 0.26428,-0.095 2.367952,-0.292137 4.170988,-0.390706 0.962266,-0.05714 3.194507,0.05714 3.979634,0.198567 2.107315,0.374278 3.883422,1.067622 5.127683,2.001889 0.90491,0.679272 1.295045,1.083192 1.846677,1.91139 1.166976,1.751893 1.498184,2.994225 1.48797,5.58153 -0.0032,0.786342 -0.02143,1.475399 -0.04286,1.531327 -0.02143,0.05714 -0.08928,0.463562 -0.15214,0.905196 -0.183568,1.296188 -0.234281,1.505041 -0.679272,2.831729 -0.785913,2.342596 -1.140049,3.189864 -2.27124,5.433748 -0.857769,1.701537 -2.726088,4.748833 -3.941635,6.428728 -0.228567,0.315708 -0.531418,0.746199 -0.674273,0.956695 -0.224281,0.331422 -0.823912,1.116334 -2.132385,2.791873 -0.845769,1.08298 -2.242241,2.68666 -4.600051,5.28233 -0.40142,0.44142 -0.696414,0.81541 -0.655701,0.82998 0.03571,0.0143 0.529275,-0.12928 1.085336,-0.31857 1.299473,-0.44356 2.085886,-0.67498 3.80478,-1.12033 2.29224,-0.59356 4.897188,-0.78841 6.69658,-0.5007 0.914482,0.14642 1.101978,0.20142 1.963532,0.57641 1.469256,0.63999 2.518806,1.75068 2.951583,3.12394 0.192854,0.61213 0.208568,0.76098 0.209996,1.96325 7.86e-4,1.06662 -0.03571,1.45247 -0.17571,2.14124 -0.178568,0.85048 -0.410707,1.64968 -0.551418,1.89753 -0.04286,0.0743 -0.149283,0.33285 -0.237138,0.57428 -0.256423,0.70284 -1.145406,2.55694 -1.328616,2.77265 -0.05714,0.0643 -0.187139,0.28714 -0.295709,0.49714 -0.436419,0.84148 -1.662323,2.6823 -2.477307,3.72092 -0.284994,0.36285 -0.810341,1.0337 -1.168119,1.49076 -0.35785,0.45713 -0.840983,1.03841 -1.073836,1.2919 -1.531898,1.66761 -1.697894,1.92253 -1.164691,1.78839 1.573469,-0.3957 2.107529,-0.46142 3.501287,-0.43213 l 1.377615,0.0286 0.574274,0.27071 c 0.716915,0.33785 1.003623,0.57927 1.290617,1.08448 0.464277,0.81827 0.574274,1.62489 0.357136,2.63137 -0.282137,1.31105 -0.676415,2.27089 -1.408615,3.42986 -0.212852,0.33642 -0.462133,0.7497 -0.55356,0.91777 -0.452134,0.82763 -2.943798,3.699 -4.2572,4.90583 -1.435328,1.31897 -3.045867,2.65109 -4.000134,3.30858 -0.315708,0.21785 -0.901196,0.62213 -1.301045,0.89976 -0.399992,0.27714 -0.772699,0.52999 -0.828412,0.56142 -0.106427,0.0571 -0.07143,0.13786 0.598559,1.3074 0.733057,1.28176 2.667589,5.45354 3.371432,7.27057 0.559989,1.44469 0.912339,2.46802 0.872697,2.53217 -0.07357,0.11856 -0.315708,0.0814 -1.709465,-0.26429 -0.741271,-0.18356 -1.623254,-0.39284 -1.960033,-0.46356 -0.337136,-0.0714 -0.801698,-0.18357 -1.033193,-0.24928 -0.231424,-0.0643 -0.644987,-0.16928 -0.91841,-0.22785 -1.090835,-0.235 -3.535429,-0.71734 -3.992277,-0.78841 -0.649273,-0.10143 -1.799821,-0.29357 -2.551235,-0.42714 -1.212832,-0.21571 -2.459164,-0.41927 -2.984725,-0.48713 -0.294994,-0.0357 -0.776842,-0.10571 -1.071479,-0.15071 -1.015265,-0.15428 -2.221669,-0.30928 -3.061295,-0.39285 -0.462848,-0.0429 -1.276189,-0.13357 -1.807107,-0.19428 -0.530704,-0.0571 -1.123263,-0.11072 -1.316402,-0.11072 -0.193568,0 -0.516418,-0.0357 -0.718486,-0.0786 -0.202138,-0.0429 -0.866625,-0.11072 -1.477041,-0.15143 -0.609988,-0.0357 -1.367973,-0.10643 -1.683681,-0.14857 -0.589988,-0.0778 -1.756042,-0.15857 -5.089402,-0.35213 -6.67365,-0.38785 -16.74009,-0.38785 -24.37551,-0.001 -1.24176,0.0643 -2.46438,0.13214 -2.71694,0.15356 -0.25286,0.0214 -0.90691,0.0572 -1.45412,0.0843 -0.54713,0.0286 -1.21876,0.0793 -1.4924,0.12 -0.27356,0.0357 -1.04847,0.10356 -1.72196,0.13928 -0.67356,0.0357 -1.5689,0.10142 -1.98982,0.14714 -0.4207,0.0428 -1.41968,0.135 -2.21945,0.20142 -2.89695,0.23785 -3.37544,0.285 -6.73487,0.65642 -0.75763,0.0843 -1.73918,0.18857 -2.18117,0.23285 -0.44213,0.0429 -1.02741,0.12714 -1.30104,0.18357 -0.27357,0.0571 -0.7557,0.12428 -1.07141,0.15 -0.31571,0.0286 -0.76341,0.0778 -0.99491,0.11571 -0.43713,0.0714 -1.57175,0.21999 -3.21436,0.42213 -0.52642,0.0643 -1.16334,0.15 -1.4159,0.19 -0.25286,0.0357 -0.83799,0.12714 -1.30105,0.19428 -0.46285,0.0643 -1.13455,0.16928 -1.49233,0.22714 -0.35785,0.0571 -0.85498,0.12785 -1.10476,0.15642 -0.24999,0.0286 -0.54285,0.0879 -0.6507,0.13286 -0.10786,0.0429 -0.41999,0.10785 -0.69356,0.13785 -0.27356,0.0357 -0.82462,0.11 -1.22455,0.17571 -0.39999,0.0643 -0.95976,0.155 -1.24426,0.19857 -0.84998,0.13 -1.77682,0.28571 -3.23286,0.54285 -0.7577,0.13428 -1.57554,0.27356 -1.81753,0.30999 -0.24214,0.0357 -0.56499,0.11857 -0.71728,0.18214 -0.35356,0.14714 -0.48141,0.14643 -0.53998,-0.005 z m 93.175413,-13.03331 c 0.113569,-0.0793 0.551418,-0.36857 0.972766,-0.64142 1.403186,-0.91098 3.652927,-2.76651 4.566409,-3.76628 2.54602,-2.78651 3.638998,-4.61891 4.18963,-7.02393 0.166425,-0.7252 0.03571,-1.76889 -0.292137,-2.41209 -0.618559,-1.19919 -2.357667,-1.85304 -4.336413,-1.6304 l -0.833983,0.0936 -0.460705,0.42642 c -0.253567,0.235 -0.529276,0.49928 -0.614274,0.58785 -0.520704,0.54499 -2.618019,2.44873 -3.557928,3.22893 -2.282597,1.89482 -2.689018,2.21503 -4.419697,3.48315 -0.305708,0.22356 -0.554989,0.46141 -0.554989,0.52927 0,0.0643 0.178568,0.36142 0.397849,0.65427 0.218567,0.29285 0.538561,0.72113 0.712129,0.9527 0.284994,0.38142 1.617396,2.37852 2.220955,3.32907 0.481419,0.75792 1.055836,1.68897 1.204333,1.95161 0.242138,0.42785 0.447848,0.48856 0.806555,0.23785 z"
       id="path3381"
       inkscape:connector-curvature="0" />
  </g>
</svg>
