<?xml version="1.0" encoding="UTF-8" standalone="no"?>
<!-- Created with Inkscape (http://www.inkscape.org/) -->

<svg
   xmlns:dc="http://purl.org/dc/elements/1.1/"
   xmlns:cc="http://creativecommons.org/ns#"
   xmlns:rdf="http://www.w3.org/1999/02/22-rdf-syntax-ns#"
   xmlns:svg="http://www.w3.org/2000/svg"
   xmlns="http://www.w3.org/2000/svg"
   xmlns:sodipodi="http://sodipodi.sourceforge.net/DTD/sodipodi-0.dtd"
   xmlns:inkscape="http://www.inkscape.org/namespaces/inkscape"
   width="336.02087mm"
   height="173.04218mm"
   viewBox="0 0 336.02087 173.04218"
   version="1.1"
   id="svg8"
   inkscape:version="0.92.3 (2405546, 2018-03-11)"
   sodipodi:docname="doaj.svg"
   inkscape:export-filename="/home/archaeoz/Dropbox/My Root Beer/BPP/AJSTD/website/imgs/doaj.png"
   inkscape:export-xdpi="37.795273"
   inkscape:export-ydpi="37.795273">
  <defs
     id="defs2" />
  <sodipodi:namedview
     id="base"
     pagecolor="#ffffff"
     bordercolor="#666666"
     borderopacity="1.0"
     inkscape:pageopacity="0.0"
     inkscape:pageshadow="2"
     inkscape:zoom="0.35"
     inkscape:cx="1079.5174"
     inkscape:cy="642.077"
     inkscape:document-units="mm"
     inkscape:current-layer="layer1"
     showgrid="false"
     fit-margin-top="0"
     fit-margin-left="0"
     fit-margin-right="0"
     fit-margin-bottom="0"
     inkscape:window-width="1366"
     inkscape:window-height="732"
     inkscape:window-x="0"
     inkscape:window-y="0"
     inkscape:window-maximized="1" />
  <metadata
     id="metadata5">
    <rdf:RDF>
      <cc:Work
         rdf:about="">
        <dc:format>image/svg+xml</dc:format>
        <dc:type
           rdf:resource="http://purl.org/dc/dcmitype/StillImage" />
        <dc:title></dc:title>
      </cc:Work>
    </rdf:RDF>
  </metadata>
  <g
     inkscape:label="Layer 1"
     inkscape:groupmode="layer"
     id="layer1"
     transform="translate(371.18077,-318.43574)">
    <path
       inkscape:connector-curvature="0"
       id="path828"
       d="m -244.18076,491.37004 c -2.63029,-0.23753 -6.34172,-0.90904 -8.52458,-1.54237 -7.26822,-2.10878 -14.31699,-6.9026 -19.21423,-13.06745 -4.99884,-6.29276 -6.88737,-12.34216 -7.73683,-24.78291 -0.39598,-5.79936 -0.39871,-31.93156 -0.004,-37.83542 0.51048,-7.63447 1.5048,-13.00537 3.18411,-17.19927 3.56232,-8.89645 12.8994,-17.23574 22.80358,-20.3667 8.16784,-2.58205 17.94036,-2.57452 26.00838,0.02 9.13758,2.93853 17.79017,10.26441 21.84551,18.49592 2.16724,4.39906 3.39744,9.80935 3.97066,17.46251 0.72873,9.72951 0.56549,36.54644 -0.26736,43.92083 -1.29465,11.46335 -4.01124,17.43726 -11.01484,24.22216 -5.58701,5.41254 -12.61006,8.92999 -20.32694,10.1806 -2.46361,0.39925 -8.62195,0.68183 -10.72352,0.49205 z m 10.4619,-8.2795 c 6.37363,-1.36924 12.07176,-4.81849 16.45277,-9.95934 4.45736,-5.23044 6.2222,-10.94374 6.973,-22.57357 0.43855,-6.7931 0.16897,-35.92445 -0.37065,-40.05289 -1.25026,-9.5654 -3.34272,-14.4416 -8.28736,-19.3126 -6.43839,-6.34249 -14.07718,-9.2665 -23.113,-8.84729 -8.20941,0.38087 -14.64208,3.16031 -20.2729,8.75955 -6.02672,5.99293 -8.1407,12.14721 -8.82213,25.68332 -0.34049,6.76353 -0.34655,26.00814 -0.0102,32.54375 0.66054,12.83677 2.6448,19.10467 7.81639,24.69046 4.88815,5.27965 11.25113,8.61294 18.24618,9.55837 2.70683,0.36584 8.58119,0.11321 11.38794,-0.48976 z m 160.258353,8.16577 c -4.210236,-0.34512 -8.193909,-1.37228 -11.969804,-3.08632 -2.46724,-1.11997 -6.643899,-3.90756 -8.133662,-5.42854 l -1.121754,-1.14527 2.895944,-2.88695 2.895917,-2.88695 1.533102,1.32647 c 5.442612,4.70898 9.321668,6.30684 16.085212,6.62583 6.966003,0.32855 13.437633,-1.34688 17.727084,-4.58931 3.445775,-2.60471 6.790585,-7.80191 8.059897,-12.52359 1.351095,-5.02586 1.329584,-4.23116 1.331251,-49.14635 l 0.0016,-41.87032 h 4.365625 4.365625 v 41.36134 c 0,28.02708 -0.0934,42.29311 -0.289692,44.25157 -1.217904,12.15146 -7.706334,22.01368 -17.558994,26.68916 -3.947055,1.87304 -7.850664,2.8886 -12.71069,3.30678 -3.467153,0.29834 -3.86551,0.29847 -7.476622,0.002 z M -371.18077,433.0596 v -57.41459 l 21.10052,0.002 c 12.72846,10e-4 22.04533,0.11019 23.48177,0.27442 7.12397,0.81447 12.69427,2.7466 17.84267,6.18895 8.07364,5.39822 12.68018,13.73895 14.81501,26.82444 0.96308,5.9032 1.12752,10.22967 1.01244,26.63815 -0.11798,16.82074 -0.23985,18.63568 -1.69672,25.26771 -2.00876,9.14438 -4.9195,14.93446 -9.91721,19.72743 -4.61851,4.42937 -9.91615,7.19268 -16.63223,8.67562 -5.2204,1.15269 -7.05644,1.23033 -29.09374,1.23033 h -20.91251 z m 46.16979,48.86709 c 6.69317,-1.48268 10.68836,-3.5599 14.73442,-7.66087 5.35892,-5.43163 7.84387,-13.44688 8.67368,-27.97705 0.3389,-5.93414 0.34096,-20.77717 0.004,-26.59063 -0.82326,-14.19064 -3.36951,-22.41422 -8.59514,-27.75962 -4.25393,-4.35143 -8.66442,-6.56546 -15.93803,-8.00075 -2.0155,-0.39772 -4.53804,-0.46992 -19.3177,-0.5529 l -16.99948,-0.0955 v 49.77321 49.77321 l 17.13177,-0.1029 17.13177,-0.1029 z m 130.59835,6.37077 c 0.44627,-1.2039 2.30109,-6.23703 4.12184,-11.18473 15.80892,-42.9593 16.80241,-45.65689 20.4143,-55.43022 1.3176,-3.56526 3.90283,-10.58994 5.74495,-15.61041 1.84213,-5.02047 4.11986,-11.21172 5.06163,-13.75834 0.94177,-2.54661 2.05765,-5.58271 2.47972,-6.74687 0.42208,-1.16417 1.40327,-3.84308 2.18044,-5.95313 l 1.41303,-3.83646 3.85411,-0.073 c 3.48657,-0.0661 3.87159,-0.0282 4.03739,0.39688 0.10081,0.25845 2.08806,5.64913 4.41612,11.97929 6.89233,18.74069 12.64233,34.36262 13.58531,36.90938 1.10469,2.98345 3.28627,8.91268 9.39425,25.53229 2.64733,7.20328 5.97849,16.25203 7.40257,20.10833 4.21024,11.40101 7.14913,19.49101 7.14913,19.67978 0,0.0971 -2.05034,0.14389 -4.55629,0.10408 l -4.55628,-0.0724 -0.7169,-1.98437 c -0.79486,-2.20018 -2.82308,-7.85623 -6.71305,-18.72052 l -2.58197,-7.21115 -26.84746,0.0674 -26.84747,0.0674 -0.48119,1.32292 c -0.75912,2.08701 -7.08659,19.76917 -8.33182,23.28333 l -1.12505,3.175 -4.65436,0.0722 -4.65435,0.0722 z m 69.29437,-33.66187 c 0,-0.21143 -0.11697,-0.65792 -0.25993,-0.99219 -0.14296,-0.33427 -1.22511,-3.3462 -2.40478,-6.69318 -1.17967,-3.34698 -3.9683,-11.2051 -6.19696,-17.4625 -2.22865,-6.25739 -5.36494,-15.06802 -6.96952,-19.57917 -1.60459,-4.51114 -4.05836,-11.4084 -5.45283,-15.32724 -1.39448,-3.91885 -2.59005,-7.17981 -2.65684,-7.2466 -0.14443,-0.14443 0.15026,-0.93231 -3.69311,9.87384 -1.70798,4.80219 -4.03778,11.35063 -5.17735,14.55209 -1.13957,3.20146 -4.65318,13.08364 -7.80803,21.96042 -3.15485,8.87677 -6.1258,17.23607 -6.60211,18.57622 -0.47632,1.34015 -0.80166,2.50101 -0.72298,2.57969 0.0787,0.0787 10.89836,0.14305 24.04375,0.14305 20.72466,0 23.90069,-0.0511 23.90069,-0.38443 z"
       style="fill:#ff7300;fill-opacity:1;stroke-width:0.26458335"
       sodipodi:nodetypes="csssccccssssccccssccssscscccccccccccccccccsscccccccccssscssccccscsccccccccccscccccccscsssccccccccsccccssssccscsscsss" />
    <path
       style="fill:#bfbfbf;fill-opacity:1;stroke-width:0.26458335"
       d="m -371.18077,340.8523 v -22.3731 l 3.37344,0.074 3.37344,0.074 v 22.225 22.225 l -3.37344,0.074 -3.37344,0.074 z m 19.9099,22.18921 c -0.26084,-0.11088 -0.33073,-4.82687 -0.33073,-22.31508 v -22.17448 l 3.02265,-0.0387 c 2.86725,-0.0367 3.04528,-0.007 3.4626,0.56684 0.46437,0.63916 5.34482,8.02848 14.54912,22.02834 l 5.55625,8.45113 0.0683,-15.53229 0.0683,-15.53228 h 3.30013 c 3.20424,0 3.30423,0.0173 3.44099,0.59531 0.0775,0.32742 0.10951,10.35844 0.0712,22.29115 l -0.0697,21.69583 -2.91042,0.032 c -1.60073,0.0176 -3.02948,-0.0617 -3.175,-0.17617 -0.14552,-0.11451 -4.78895,-7.10956 -10.31875,-15.54457 -5.52979,-8.43501 -10.0876,-15.3073 -10.12847,-15.27175 -0.0409,0.0356 -0.0689,6.97304 -0.0623,15.41663 0.01,12.14073 -0.058,15.3788 -0.32257,15.48015 -0.46231,0.17709 -5.81417,0.2011 -6.22156,0.0279 z m 46.09349,-0.15984 c -0.0719,-0.18751 -0.0991,-10.22146 -0.0603,-22.29765 l 0.0705,-21.95672 9.26042,0.013 c 8.85524,0.0124 9.35621,0.0398 11.4498,0.62607 4.23536,1.18596 7.58472,4.13633 9.28946,8.18286 1.08326,2.57134 1.38009,4.83927 1.51177,11.55098 0.22743,11.59122 -0.66014,15.59258 -4.31908,19.47124 -1.88437,1.99753 -4.2983,3.41558 -6.97902,4.09979 -2.28662,0.58362 -20.01424,0.85573 -20.2235,0.31042 z m 17.39349,-6.05468 c 1.84335,-0.39071 3.2877,-1.12686 4.53335,-2.31055 2.33299,-2.21693 2.83736,-4.64588 2.83736,-13.66414 0,-9.31545 -0.50659,-11.56364 -3.13673,-13.92041 -2.17856,-1.95213 -3.06458,-2.16854 -9.38034,-2.29114 l -5.4901,-0.10657 v 16.295 16.295 h 4.61719 c 2.53945,0 5.24812,-0.13373 6.01927,-0.29719 z m 25.52997,6.21292 c -0.22454,-0.22454 -0.24093,-43.55717 -0.0167,-44.14151 0.13603,-0.3545 1.86708,-0.40339 14.28169,-0.40339 h 14.12691 v 3.04271 3.0427 h -10.84792 -10.84792 v 6.4823 6.48229 h 9.26042 9.26042 v 3.04271 3.04271 h -9.26042 -9.26042 v 6.74687 6.74688 h 10.85658 10.85659 l -0.0748,2.97656 -0.0748,2.97656 -14.03553,0.0756 c -7.71954,0.0416 -14.12038,-0.009 -14.22408,-0.11298 z m 33.94816,-0.12724 c 0,-0.14311 2.99479,-5.22477 6.6551,-11.29258 3.6603,-6.0678 6.65671,-11.16701 6.65868,-11.33157 0.002,-0.16455 -0.83646,-1.71237 -1.86317,-3.43958 -1.02671,-1.72721 -3.84452,-6.46463 -6.2618,-10.52759 -2.41729,-4.06295 -4.39506,-7.48474 -4.39506,-7.60397 0,-0.11923 1.6917,-0.18827 3.75933,-0.15343 l 3.75933,0.0634 0.89223,1.5875 c 0.49072,0.87312 2.38561,4.32594 4.21087,7.67292 1.82526,3.34697 3.41103,6.18656 3.52394,6.31018 0.23368,0.25585 0.20821,0.29879 5.27617,-8.89754 l 3.75878,-6.82068 3.79789,0.0549 c 3.44418,0.0497 3.77605,0.0957 3.56329,0.49323 -0.25296,0.47266 -4.19304,7.13841 -8.98511,15.20084 -1.6404,2.75988 -3.10164,5.27937 -3.24721,5.59885 -0.22913,0.50289 0.62553,2.04954 6.36494,11.5185 3.64629,6.01568 6.70499,11.13444 6.79711,11.37502 0.15093,0.39419 -0.19981,0.43683 -3.54891,0.43152 -2.65984,-0.004 -3.79504,-0.10066 -3.99305,-0.33925 -0.15217,-0.18335 -2.05543,-3.47316 -4.22947,-7.31069 -5.27228,-9.30643 -5.29136,-9.33755 -5.55799,-9.0649 -0.12666,0.12951 -2.31197,3.92642 -4.85623,8.43757 l -4.62594,8.20208 -3.72686,0.0478 c -2.29878,0.0295 -3.72686,-0.0519 -3.72686,-0.21242 z m 42.51557,0.12638 c -0.10023,-0.10023 -0.18224,-10.16157 -0.18224,-22.35853 v -22.1763 l 14.15521,2.4e-4 14.15521,2.3e-4 v 3.0349 3.0349 l -10.78177,0.0691 -10.78177,0.0691 -0.0708,6.41614 -0.0709,6.41615 h 9.26512 9.26512 v 3.04271 3.04271 h -9.26496 -9.26496 l 0.0707,6.68073 0.0707,6.68073 10.79041,0.0691 10.7904,0.0691 -0.0748,2.97358 -0.0748,2.97359 -13.90683,0.072 c -7.64876,0.0396 -13.98884,-0.01 -14.08906,-0.11025 z m 38.8879,-0.006 c -0.097,-0.097 -0.17639,-10.17112 -0.17639,-22.38692 v -22.21039 l 9.32657,0.13276 c 10.28401,0.14639 11.38453,0.28793 14.29329,1.83828 4.34697,2.31692 6.85622,6.26971 7.61908,12.00229 0.18436,1.38538 0.25257,5.06699 0.18206,9.82719 -0.0991,6.68724 -0.18015,7.85754 -0.66759,9.63423 -1.0896,3.97146 -2.93301,6.6816 -5.88608,8.65359 -2.07334,1.38452 -4.31052,2.10096 -7.54127,2.41505 -2.97841,0.28955 -16.87795,0.3658 -17.14967,0.0941 z m 18.94281,-6.66975 c 2.08528,-0.82417 3.91556,-2.64525 4.66097,-4.63756 0.86469,-2.31108 1.17658,-6.35883 1.00095,-12.99026 -0.16644,-6.2839 -0.44789,-8.06079 -1.58384,-9.99914 -0.86526,-1.47645 -1.99921,-2.45145 -3.88269,-3.33846 -1.39905,-0.65886 -1.6722,-0.68874 -7.07761,-0.7742 l -5.62239,-0.0889 v 16.31773 16.31774 l 5.4901,-0.10224 c 4.94848,-0.0922 5.6405,-0.16167 7.01451,-0.70473 z m 42.187486,6.6813 c -0.103373,-0.10336 -0.187933,-10.15835 -0.187933,-22.34442 v -22.15634 l 1.653646,0.0417 1.653645,0.0417 v 22.225 22.225 l -1.465712,0.0777 c -0.806132,0.0427 -1.550273,-0.007 -1.653646,-0.11024 z m 18.241963,-0.0143 c -0.218281,-0.21829 -0.225398,-43.56355 -0.0071,-44.13207 0.113691,-0.29653 0.556366,-0.40338 1.671055,-0.40338 h 1.516327 l 12.809009,19.21731 12.808983,19.21731 0.06786,-19.2262 0.06789,-19.22621 1.718046,0.0473 1.718072,0.0473 v 22.18159 22.18159 l -0.595313,0.14621 c -1.098947,0.26991 -2.910258,-0.0552 -3.20077,-0.57453 -0.150046,-0.2682 -4.513342,-6.85749 -9.696213,-14.64285 -5.182843,-7.78537 -10.786031,-16.22146 -12.451477,-18.74687 l -3.028103,-4.59166 -0.06787,19.34218 -0.06787,19.34218 h -1.541674 c -0.847937,0 -1.622293,-0.0806 -1.720824,-0.17912 z"
       id="path826"
       inkscape:connector-curvature="0"
       sodipodi:nodetypes="ccccccccccscccscccscccscsccccccccccccssccccscscccscccsccccccccccccccccccccccsscscscccccscccccccccsccccsscscccccccccccccccccccccscccscscscccccccccscccccccccsccccccccccsccccccccccccccccscc" />
  </g>
</svg>
